<svg xmlns="http://www.w3.org/2000/svg" xmlns:xlink="http://www.w3.org/1999/xlink" viewBox="0 0 1116.07 632.26"><defs><style>.cls-1,.cls-10,.cls-14,.cls-17,.cls-20,.cls-21,.cls-27,.cls-30,.cls-4{fill:none;}.cls-1,.cls-14,.cls-2,.cls-24,.cls-25,.cls-27,.cls-28{stroke:#000;}.cls-1,.cls-10,.cls-14,.cls-15,.cls-16,.cls-17,.cls-18,.cls-19,.cls-2,.cls-20,.cls-21,.cls-22,.cls-24,.cls-25,.cls-27,.cls-28,.cls-29,.cls-30,.cls-4,.cls-6,.cls-8,.cls-9{stroke-miterlimit:10;}.cls-1,.cls-10,.cls-18,.cls-24,.cls-25{stroke-width:3px;}.cls-2{fill:#ccc;}.cls-16,.cls-19,.cls-2,.cls-27,.cls-28,.cls-4,.cls-6,.cls-8,.cls-9{stroke-width:2px;}.cls-19,.cls-29,.cls-3,.cls-6{fill:#ff7a5f;}.cls-16,.cls-4,.cls-6,.cls-8,.cls-9{stroke:#150000;}.cls-5,.cls-9{fill:#e0ac69;}.cls-7{fill:#2b1717;}.cls-8{fill:#8d5524;}.cls-10{stroke:#f7f6f5;}.cls-11{fill:#150500;}.cls-12{fill:#0c0c0b;}.cls-13{fill:#f4f4ef;}.cls-15,.cls-16,.cls-31,.cls-32{fill:#fff;}.cls-15{stroke:#ff8474;}.cls-17{stroke:#020202;}.cls-18,.cls-22,.cls-25{fill:#150000;}.cls-18,.cls-19,.cls-20,.cls-21{stroke:#ff7a5f;}.cls-20{stroke-width:5px;}.cls-21{stroke-width:4px;}.cls-22{stroke:#e0ac69;stroke-width:3.5px;}.cls-23{clip-path:url(#clip-path);}.cls-24{fill:#0a84a0;}.cls-26{fill:#7c4319;}.cls-28{fill:#f2f2f2;}.cls-29,.cls-30{stroke:#f2f2f2;stroke-width:7px;}.cls-32{font-size:23.42px;font-family:MyriadPro-Regular, Myriad Pro;}</style><clipPath id="clip-path"><path class="cls-1" d="M579.24,476.62c3.81-12.71,37.16-12.91,52-13,13.69-.08,50.07-.3,54,13s-23.66,40.72-53.5,40.5C602.29,516.9,575.33,489.68,579.24,476.62Z"/></clipPath></defs><title>Artboard 1_contactus</title><g id="Layer_1" data-name="Layer 1"><polygon class="cls-2" points="882.4 547.88 882.4 452.23 258.4 452.23 258.4 582.12 823.1 582.12 882.4 547.88"/><polygon class="cls-2" points="882.4 516.84 823.74 550.39 823.74 582.12 882.4 547.46 882.4 516.84"/><g id="chef_gown" data-name="chef gown"><polygon class="cls-3" points="544.34 293.5 647.93 293.5 656.88 453.03 533.88 453.03 544.34 293.5"/><polygon class="cls-4" points="544.34 293.5 647.93 293.5 656.88 453.03 533.88 453.03 544.34 293.5"/></g><polygon class="cls-5" points="615.25 293.2 574.42 293.2 580.44 269.95 610.28 267.32 615.25 293.2"/><polygon class="cls-4" points="615.25 293.2 574.42 293.2 580.44 269.95 610.28 267.32 615.25 293.2"/><g id="chef_gown-2" data-name="chef gown"><polygon class="cls-3" points="568.11 297.69 649.82 283.06 656.88 453.03 540.28 453.03 568.11 297.69"/><polygon class="cls-4" points="568.11 297.69 649.82 283.06 656.88 453.03 540.28 453.03 568.11 297.69"/></g><rect id="left_upper_arm" data-name="left upper arm" class="cls-6" x="636.26" y="292.35" width="29.62" height="119.3" rx="9.79" transform="matrix(0.96, -0.28, 0.28, 0.96, -72.93, 198.3)"/><rect id="right_lower_arm" data-name="right lower arm" class="cls-6" x="627.05" y="348.07" width="29.62" height="80.19" rx="8.29" transform="translate(-35.03 711.4) rotate(-56.69)"/><rect id="right_upper_arm" data-name="right upper arm" class="cls-6" x="505.72" y="291.62" width="34.88" height="123.46" rx="10.85" transform="translate(202.71 -190.59) rotate(25.46)"/><rect id="left_lower_arm" data-name="left lower arm" class="cls-6" x="506.25" y="379.4" width="29.62" height="80.19" rx="8.29" transform="translate(-146.74 458.6) rotate(-42.19)"/><path id="hair" class="cls-7" d="M664.44,187.55a33.7,33.7,0,0,1,8.55,9.26c7,11.27,4.86,23,4.43,25.2-1.5,7.43-5.27,13-7.49,16.34-2.55,3.77-5.29,6.8-9.19,13.61-2.7,4.7-3.65,7.19-3.07,9.88.37,1.66,1.05,2.13,3.07,6.8,1.62,3.76,1.46,4.11,2,5.11,3.29,5.71,14.58,5.19,16.34,5.11,11.24-.52,18.71-6.26,19.4-5.11.46.76-2.64,3.44-6.13,6.47-4.57,4-6.86,5.95-9.87,7.49-3.46,1.77-9,4.58-15,3.06-7.4-1.88-11.35-9.3-13.27-12.93-1.31-2.47-1.15-3-4.43-11.24-1.67-4.21-3.11-7.63-4.08-9.87"/><rect id="upper_handle" data-name="upper handle" class="cls-8" x="656.47" y="244.24" width="13.68" height="22.37" rx="5.54" transform="translate(249.26 -322.31) rotate(33.31)"/><rect id="rolling_pin" data-name="rolling pin" class="cls-8" x="616.79" y="254.69" width="37.17" height="83.11" rx="16.77" transform="translate(267.08 -300.26) rotate(33.31)"/><rect id="lower_handle" data-name="lower handle" class="cls-8" x="605.96" y="318.03" width="13.68" height="28.51" rx="6" transform="translate(283.17 -281.94) rotate(33.31)"/><rect id="left_hand" data-name="left hand" class="cls-9" x="570.67" y="340.6" width="42.94" height="29.79" rx="2.94" transform="translate(257.08 -248.44) rotate(30)"/><rect id="right_hand" data-name="right hand" class="cls-9" x="543.16" y="439.33" width="27.37" height="29.05" rx="2.42" transform="translate(301.53 -217.62) rotate(30)"/><rect id="left_thumb" data-name="left thumb" class="cls-9" x="592.96" y="336.75" width="29.79" height="9.33" rx="2.69" transform="matrix(0.87, 0.5, -0.5, 0.87, 252.15, -258.18)"/><path id="rolling_pin_smile" data-name="rolling pin smile" class="cls-10" d="M629.59,312.39a15,15,0,0,0,4.59-2,15.38,15.38,0,0,0,4.09-4.09,20.46,20.46,0,0,0,2.55-5.11,26.15,26.15,0,0,0,1.36-5.44q.35-3.4.68-6.81"/><circle id="rolling_pin_eye" data-name="rolling pin eye" class="cls-10" cx="626.01" cy="303.37" r="1.7"/><circle id="rolling_pin_eye-2" data-name="rolling pin eye" class="cls-10" cx="632.65" cy="295.2" r="1.7"/><path id="collar" class="cls-6" d="M575.46,285.84c-4.26.45-8.73,1.07-13.38,1.91a186,186,0,0,0-23.2,5.75l48.32-1Z"/><circle id="button" class="cls-11" cx="570.95" cy="329.15" r="4.68"/><circle id="button-2" data-name="button" class="cls-11" cx="566.27" cy="371.57" r="4.68"/><ellipse id="head" class="cls-9" cx="596.87" cy="202.57" rx="66.43" ry="70.18"/><path class="cls-7" d="M658.34,229.23c-1.75-.58-.53-9,.95-16.78l-5-2.89-2.87.7c-1.32,2.1-2.92,4-4.47,3.75-4-.53-7.93-14.68-3.43-26.09,3.36-8.52,11.88-16.67,16.82-14.84,3.36,1.24,3.95,7.13,5,18.86,2.34,26.25-3.61,35.11-5.87,36.9C658.83,229.33,658.49,229.28,658.34,229.23Z"/><circle class="cls-12" cx="568.64" cy="191.09" r="5.6"/><circle id="left_eye" data-name="left eye" class="cls-12" cx="616.13" cy="204.88" r="5.6"/><circle class="cls-13" cx="615.43" cy="205.74" r="2.14"/><circle class="cls-13" cx="567.43" cy="192.21" r="2.14"/><path id="nose" class="cls-14" d="M584.39,211a4.59,4.59,0,0,0-4.59-.77,4.71,4.71,0,0,0-2.55,3.06,5.31,5.31,0,0,0,0,3.07A5.7,5.7,0,0,0,579,219.2a5.58,5.58,0,0,0,3.32,1.27"/><path class="cls-15" d="M554.86,226.77c-1,.53-.09,4.06.52,6.46a30.35,30.35,0,0,0,4,10,24.29,24.29,0,0,0,9.44,8.73c7.29,3.64,14.37,2,17.36,1.36a30.53,30.53,0,0,0,14.64-8.17c1.9-1.79,5.08-5.22,4.43-6.12s-3.78,1.19-7.83,2.38c-9.61,2.82-18.72-.57-23-2.18-3.83-1.43-9-3.36-14-8C557.89,228.9,555.83,226.26,554.86,226.77Z"/><g id="Hair_right_side" data-name="Hair right side"><path class="cls-7" d="M563.42,159.09a53.84,53.84,0,0,1-8.51,8.85,41.54,41.54,0,0,1-7.49,5.11c-3.09,1.61-3.5,1.27-6.47,2.72-6.34,3.1-8.31,6.52-9.53,5.79-1.54-.92.39-7,1.7-10.21a54.69,54.69,0,0,1,4.08-7.15,73,73,0,0,1,5.45-8.17,34.71,34.71,0,0,1,7.83-6.81"/><path class="cls-7" d="M563.42,159.09a6.1,6.1,0,0,0,.68-4.42c-1-3.63-6.49-6.28-13.62-5.45"/></g><path id="collar-2" data-name="collar" class="cls-3" d="M577,286.73c-6.63.73-12,1.68-15.79,2.44-9.44,1.9-14.31,3.7-19.36,4.56a25.42,25.42,0,0,0-4,1,25.06,25.06,0,0,0-4,1.77l57-1.31Z"/><path class="cls-16" d="M664.47,187.56c-3-1.63-7.75-4.21-13.78-7.12-25.49-12.26-47.54-17.95-73.54-24.52-6.71-1.7-16.37-4-28.14-6.54L584.38,42.43,699.84,80.61Z"/><rect class="cls-16" x="571.72" y="39.56" width="121.61" height="104.97" transform="matrix(0.95, 0.31, -0.31, 0.95, 60.89, -193.95)"/><path class="cls-17" d="M651.81,210.88c1.52-.58,4.16-1.33,5.79-.08,2.64,2,.84,7.88-.29,11.55-.36,1.19-3.77,12-7.72,11.67-.73-.06-1.92-.54-3.22-3.11"/><path class="cls-18" d="M675.6,393.31l-28.93-22.66"/><path class="cls-19" d="M678.23,398.27l-3.7-11.59-6.23,10.44,9.93,1.15"/><path class="cls-19" d="M521.88,405.73q-6.5-13.5-13-27l-15,7-7,11,14,19Z"/><path id="collar-3" data-name="collar" class="cls-3" d="M575.46,286.84c-4.26.45-8.73,1.07-13.38,1.91a186,186,0,0,0-23.2,5.75l48.32-1Z"/><line class="cls-20" x1="544.38" y1="295.23" x2="559.38" y2="303.23"/><line class="cls-21" x1="555.22" y1="290.79" x2="561.88" y2="307.73"/><path class="cls-9" d="M564.88,467.73l-11-7"/><path class="cls-9" d="M568.88,461.73l-11-7"/><path class="cls-9" d="M572.88,455.73l-11-7"/><path id="right_hand-2" data-name="right hand" class="cls-9" d="M557.47,428.14l7.41,5.59a8.13,8.13,0,0,1,3,3,8,8,0,0,1,1,3l-.79,2.38a1.41,1.41,0,0,1-1.92.51l-12.8-7.38a1.41,1.41,0,0,1-.51-1.92l2.69-4.67Z"/><path id="thumb_sep" data-name="thumb sep" class="cls-22" d="M564.62,441.5,553.15,435"/><line class="cls-18" x1="557.88" y1="336.73" x2="563.88" y2="300.73"/><line class="cls-18" x1="556.88" y1="336.73" x2="562.88" y2="300.73"/><g class="cls-23"><rect class="cls-24" x="574.23" y="476.66" width="112.77" height="66.08" transform="translate(1261.22 1019.4) rotate(180)"/></g><path class="cls-1" d="M579.24,476.62c3.81-12.71,37.16-12.91,52-13,13.69-.08,50.07-.3,54,13s-23.66,40.72-53.5,40.5C602.29,516.9,575.33,489.68,579.24,476.62Z"/><ellipse class="cls-25" cx="631.74" cy="474.96" rx="53" ry="11.71"/><polygon class="cls-26" points="499.74 483.12 358.11 483.12 313.74 520.12 466.74 520.12 499.74 483.12"/><polygon class="cls-27" points="499.74 483.12 358.11 483.12 313.74 520.12 466.74 520.12 499.74 483.12"/><path class="cls-28" d="M357.74,500.12c.46,2.07,4.31,3.07,12,5,6.36,1.59,11.61,2.91,19,3,9.13.11,10.4-1.78,19-1,6.33.57,5.88,1.62,11,2,7.24.54,9.81-1.43,24-5,12.84-3.24,17.4-3.31,18-6,.41-1.88-1.54-3-8-10a133,133,0,0,1-11-13c-6.05-8.46-5.11-10.7-9-13-4.05-2.39-8.34-1.89-16-1a46.76,46.76,0,0,0-15,4c-1.91.88-4.23,2.12-12,8-7.19,5.43-8.9,7.17-15,12C361.84,495.33,357.12,497.37,357.74,500.12Z"/><rect class="cls-3" x="485.59" y="395.18" width="6.17" height="6.17" rx="3.09"/><rect class="cls-3" x="486.66" y="397.23" width="6.17" height="6.17" rx="3.09"/><rect class="cls-29" x="359.34" y="157.77" width="92.94" height="52.37"/><path class="cls-29" d="M362.91,205.38l43.41-24.66,43.4,24.66"/><polygon class="cls-3" points="373.08 163.48 406.53 194.85 436.91 162.58 373.08 163.48"/><polygon class="cls-30" points="373.08 163.48 406.53 194.85 436.91 162.58 373.08 163.48"/><path class="cls-3" d="M314.51,279.6c3.49,11.6,5.52,17.31,3.34,18.95-2,1.51-6.21-1-9.56-3-3.56-2.14-10-6-12.08-13.62-1-3.58-1.88-11.36,2.36-13.85,3.6-2.13,9.16.62,12.11,3.64C312.46,273.52,313.25,275.45,314.51,279.6Z"/><path class="cls-3" d="M331.44,274.91c1,7.57-3.89,13.5-7.23,17.53-2.75,3.33-6,7.26-8.4,6.47-1-.33-1.46-1.44-2.84-20.85-.2-2.84-.34-5.22.94-7.83,1.72-3.52,5.82-7.19,9.83-6.53C328.73,264.51,331,271.26,331.44,274.91Z"/><rect class="cls-3" x="767.22" y="136.84" width="72.27" height="39.89" rx="7.98"/><polygon class="cls-3" points="815.37 183.86 804.54 172.72 826.2 172.72 815.37 183.86"/><rect class="cls-31" x="779.67" y="144.75" width="29.79" height="19.95" rx="8.33"/><polygon class="cls-31" points="783.39 163.44 787.42 163.44 782.93 167.67 783.39 163.44"/><text class="cls-32" transform="translate(815.37 162.08)">1</text><rect class="cls-2" x="258.4" y="549.48" width="565.34" height="32.64"/></g></svg>