<svg xmlns="http://www.w3.org/2000/svg" xmlns:xlink="http://www.w3.org/1999/xlink" viewBox="0 0 626 562.02"><defs><style>.cls-1,.cls-10,.cls-14,.cls-17,.cls-20,.cls-21,.cls-27,.cls-30,.cls-4{fill:none;}.cls-1,.cls-14,.cls-2,.cls-24,.cls-25,.cls-27,.cls-28{stroke:#000;}.cls-1,.cls-10,.cls-14,.cls-15,.cls-16,.cls-17,.cls-18,.cls-19,.cls-2,.cls-20,.cls-21,.cls-22,.cls-24,.cls-25,.cls-27,.cls-28,.cls-29,.cls-30,.cls-4,.cls-6,.cls-8,.cls-9{stroke-miterlimit:10;}.cls-1,.cls-10,.cls-18,.cls-24,.cls-25{stroke-width:3px;}.cls-2{fill:#ccc;}.cls-16,.cls-19,.cls-2,.cls-27,.cls-28,.cls-4,.cls-6,.cls-8,.cls-9{stroke-width:2px;}.cls-19,.cls-29,.cls-3,.cls-6{fill:#ff7a5f;}.cls-16,.cls-4,.cls-6,.cls-8,.cls-9{stroke:#150000;}.cls-5,.cls-9{fill:#e0ac69;}.cls-7{fill:#2b1717;}.cls-8{fill:#8d5524;}.cls-10{stroke:#f7f6f5;}.cls-11{fill:#150500;}.cls-12{fill:#0c0c0b;}.cls-13{fill:#f4f4ef;}.cls-15,.cls-16,.cls-31,.cls-32{fill:#fff;}.cls-15{stroke:#ff8474;}.cls-17{stroke:#020202;}.cls-18,.cls-22,.cls-25{fill:#150000;}.cls-18,.cls-19,.cls-20,.cls-21{stroke:#ff7a5f;}.cls-20{stroke-width:5px;}.cls-21{stroke-width:4px;}.cls-22{stroke:#e0ac69;stroke-width:3.5px;}.cls-23{clip-path:url(#clip-path);}.cls-24{fill:#0a84a0;}.cls-26{fill:#7c4319;}.cls-28{fill:#f2f2f2;}.cls-29,.cls-30{stroke:#fff;stroke-width:7px;}.cls-32{font-size:23.42px;font-family:MyriadPro-Regular, Myriad Pro;}</style><clipPath id="clip-path"><path class="cls-1" d="M321.84,454.76c3.81-12.71,37.16-12.91,52-13,13.69-.08,50.07-.3,54,13s-23.66,40.72-53.5,40.5C344.89,495.05,317.93,467.82,321.84,454.76Z"/></clipPath></defs><title>Artboard 1_contactus</title><g id="Layer_1" data-name="Layer 1"><polygon class="cls-2" points="625 526.03 625 430.37 1 430.37 1 560.26 565.7 560.26 625 526.03"/><polygon class="cls-2" points="625 494.98 566.34 528.54 566.34 560.26 625 525.6 625 494.98"/><g id="chef_gown" data-name="chef gown"><polygon class="cls-3" points="286.95 271.64 390.53 271.64 399.49 431.18 276.49 431.18 286.95 271.64"/><polygon class="cls-4" points="286.95 271.64 390.53 271.64 399.49 431.18 276.49 431.18 286.95 271.64"/></g><polygon class="cls-5" points="357.85 271.34 317.02 271.34 323.04 248.09 352.88 245.47 357.85 271.34"/><polygon class="cls-4" points="357.85 271.34 317.02 271.34 323.04 248.09 352.88 245.47 357.85 271.34"/><g id="chef_gown-2" data-name="chef gown"><polygon class="cls-3" points="310.71 275.83 392.42 261.21 399.49 431.18 282.88 431.18 310.71 275.83"/><polygon class="cls-4" points="310.71 275.83 392.42 261.21 399.49 431.18 282.88 431.18 310.71 275.83"/></g><rect id="left_upper_arm" data-name="left upper arm" class="cls-6" x="378.86" y="270.5" width="29.62" height="119.3" rx="9.79" transform="matrix(0.96, -0.28, 0.28, 0.96, -77.24, 124.69)"/><rect id="right_lower_arm" data-name="right lower arm" class="cls-6" x="369.65" y="326.22" width="29.62" height="80.19" rx="8.29" transform="translate(-132.8 486.44) rotate(-56.69)"/><rect id="right_upper_arm" data-name="right upper arm" class="cls-6" x="248.32" y="269.76" width="34.88" height="123.46" rx="10.85" transform="translate(168.32 -82.06) rotate(25.46)"/><rect id="left_lower_arm" data-name="left lower arm" class="cls-6" x="248.85" y="357.55" width="29.62" height="80.19" rx="8.29" transform="translate(-198.74 280.08) rotate(-42.19)"/><path id="hair" class="cls-7" d="M407,165.7a33.7,33.7,0,0,1,8.55,9.26c7,11.27,4.86,23,4.43,25.19-1.5,7.44-5.27,13-7.49,16.34-2.54,3.78-5.29,6.81-9.19,13.62-2.7,4.7-3.65,7.19-3.07,9.87.37,1.66,1.05,2.13,3.07,6.81,1.62,3.75,1.46,4.1,2,5.11,3.29,5.7,14.58,5.18,16.34,5.1,11.24-.52,18.71-6.25,19.4-5.1.46.75-2.64,3.44-6.12,6.46-4.58,4-6.86,5.95-9.88,7.49-3.46,1.77-9,4.59-15,3.07-7.41-1.88-11.35-9.31-13.28-12.94-1.31-2.47-1.15-3-4.43-11.23-1.67-4.21-3.11-7.63-4.08-9.88"/><rect id="upper_handle" data-name="upper handle" class="cls-8" x="399.07" y="222.39" width="13.68" height="22.37" rx="5.54" transform="translate(194.96 -184.54) rotate(33.31)"/><rect id="rolling_pin" data-name="rolling pin" class="cls-8" x="359.39" y="232.83" width="37.17" height="83.11" rx="16.77" transform="translate(212.79 -162.49) rotate(33.31)"/><rect id="lower_handle" data-name="lower handle" class="cls-8" x="348.56" y="296.18" width="13.68" height="28.51" rx="6" transform="translate(228.88 -144.18) rotate(33.31)"/><rect id="left_hand" data-name="left hand" class="cls-9" x="313.27" y="318.74" width="42.94" height="29.79" rx="2.94" transform="translate(211.66 -122.67) rotate(30)"/><rect id="right_hand" data-name="right hand" class="cls-9" x="285.76" y="417.48" width="27.37" height="29.05" rx="2.42" transform="translate(256.12 -91.85) rotate(30)"/><rect id="left_thumb" data-name="left thumb" class="cls-9" x="335.56" y="314.9" width="29.79" height="9.33" rx="2.69" transform="matrix(0.87, 0.5, -0.5, 0.87, 206.73, -132.41)"/><path id="rolling_pin_smile" data-name="rolling pin smile" class="cls-10" d="M372.19,290.53a14.52,14.52,0,0,0,4.59-2,15.22,15.22,0,0,0,4.09-4.08,20.63,20.63,0,0,0,2.55-5.11,26.07,26.07,0,0,0,1.36-5.45q.35-3.41.68-6.81"/><circle id="rolling_pin_eye" data-name="rolling pin eye" class="cls-10" cx="368.61" cy="281.51" r="1.7"/><circle id="rolling_pin_eye-2" data-name="rolling pin eye" class="cls-10" cx="375.25" cy="273.34" r="1.7"/><path id="collar" class="cls-6" d="M318.06,264c-4.25.45-8.72,1.07-13.38,1.92a185.42,185.42,0,0,0-23.19,5.74l48.31-1Z"/><circle id="button" class="cls-11" cx="313.55" cy="307.3" r="4.68"/><circle id="button-2" data-name="button" class="cls-11" cx="308.87" cy="349.71" r="4.68"/><ellipse id="head" class="cls-9" cx="339.48" cy="180.72" rx="66.43" ry="70.18"/><path class="cls-7" d="M401,207.38c-1.75-.59-.54-9,.94-16.79l-5-2.89-2.87.71c-1.32,2.09-2.91,3.94-4.47,3.74-4-.52-7.93-14.68-3.43-26.09,3.36-8.52,11.88-16.66,16.82-14.83,3.36,1.24,3.95,7.13,5,18.86,2.34,26.24-3.61,35.1-5.87,36.89C401.43,207.48,401.09,207.42,401,207.38Z"/><circle class="cls-12" cx="311.24" cy="169.24" r="5.6"/><circle id="left_eye" data-name="left eye" class="cls-12" cx="358.73" cy="183.02" r="5.6"/><circle class="cls-13" cx="358.04" cy="183.88" r="2.14"/><circle class="cls-13" cx="310.04" cy="170.35" r="2.14"/><path id="nose" class="cls-14" d="M327,189.17a4.6,4.6,0,0,0-4.6-.76,4.74,4.74,0,0,0-2.55,3.06,5.36,5.36,0,0,0,0,3.06,5.7,5.7,0,0,0,1.78,2.81,5.63,5.63,0,0,0,3.32,1.28"/><path class="cls-15" d="M297.46,204.92c-1,.53-.09,4.06.53,6.45a29.76,29.76,0,0,0,4,10,24.17,24.17,0,0,0,9.43,8.74c7.29,3.63,14.37,2,17.36,1.36a30.56,30.56,0,0,0,14.64-8.17c1.9-1.79,5.08-5.22,4.43-6.13s-3.78,1.19-7.83,2.38c-9.61,2.83-18.71-.57-23-2.18-3.83-1.42-9-3.35-14-8C300.49,207.05,298.43,204.4,297.46,204.92Z"/><g id="Hair_right_side" data-name="Hair right side"><path class="cls-7" d="M306,137.24a54.25,54.25,0,0,1-8.51,8.85,40.71,40.71,0,0,1-7.49,5.1c-3.09,1.61-3.5,1.27-6.47,2.73-6.34,3.1-8.31,6.51-9.53,5.78-1.54-.91.39-7,1.7-10.21a56.64,56.64,0,0,1,4.08-7.15,73,73,0,0,1,5.45-8.17,35.19,35.19,0,0,1,7.83-6.81"/><path class="cls-7" d="M306,137.24a6.12,6.12,0,0,0,.68-4.43c-1-3.62-6.49-6.28-13.62-5.45"/></g><path id="collar-2" data-name="collar" class="cls-3" d="M319.63,264.87c-6.63.73-12,1.68-15.78,2.45-9.45,1.9-14.32,3.7-19.36,4.55a24.89,24.89,0,0,0-4,1,25.14,25.14,0,0,0-4,1.77l57-1.3Z"/><path class="cls-16" d="M407.07,165.71c-2.95-1.63-7.74-4.22-13.78-7.12-25.49-12.27-47.53-18-73.54-24.53-6.71-1.69-16.36-4-28.14-6.54L327,20.57,442.44,58.75Z"/><rect class="cls-16" x="314.33" y="17.7" width="121.61" height="104.97" transform="matrix(0.95, 0.31, -0.31, 0.95, 41.01, -114.24)"/><path class="cls-17" d="M394.41,189c1.52-.59,4.16-1.34,5.79-.09,2.64,2,.84,7.89-.29,11.56-.36,1.19-3.77,12-7.72,11.67-.73-.07-1.92-.55-3.22-3.12"/><path class="cls-18" d="M418.2,371.45,389.27,348.8"/><path class="cls-19" d="M420.83,376.41l-3.69-11.59-6.24,10.45,9.93,1.14"/><path class="cls-19" d="M264.49,383.87q-6.51-13.5-13-27l-15,7-7,11q7,9.51,14,19Z"/><path id="collar-3" data-name="collar" class="cls-3" d="M318.06,265c-4.25.45-8.72,1.07-13.38,1.92a185.42,185.42,0,0,0-23.19,5.74l48.31-1Z"/><line class="cls-20" x1="286.99" y1="273.37" x2="301.99" y2="281.37"/><line class="cls-21" x1="297.82" y1="268.93" x2="304.49" y2="285.87"/><path class="cls-9" d="M307.49,445.87q-5.5-3.5-11-7"/><path class="cls-9" d="M311.49,439.87q-5.5-3.5-11-7"/><path class="cls-9" d="M315.49,433.87q-5.5-3.5-11-7"/><path id="right_hand-2" data-name="right hand" class="cls-9" d="M300.07,406.28l7.42,5.59a8.06,8.06,0,0,1,4,6c-.27.8-.54,1.59-.8,2.39a1.41,1.41,0,0,1-1.92.51L296,413.38a1.4,1.4,0,0,1-.51-1.92l2.69-4.66Z"/><path id="thumb_sep" data-name="thumb sep" class="cls-22" d="M307.22,419.64l-11.47-6.53"/><line class="cls-18" x1="300.49" y1="314.87" x2="306.49" y2="278.87"/><line class="cls-18" x1="299.49" y1="314.87" x2="305.49" y2="278.87"/><g class="cls-23"><rect class="cls-24" x="316.83" y="454.81" width="112.77" height="66.08" transform="translate(746.43 975.69) rotate(180)"/></g><path class="cls-1" d="M321.84,454.76c3.81-12.71,37.16-12.91,52-13,13.69-.08,50.07-.3,54,13s-23.66,40.72-53.5,40.5C344.89,495.05,317.93,467.82,321.84,454.76Z"/><ellipse class="cls-25" cx="374.34" cy="453.11" rx="53" ry="11.71"/><polygon class="cls-26" points="242.34 461.26 100.71 461.26 56.34 498.26 209.34 498.26 242.34 461.26"/><polygon class="cls-27" points="242.34 461.26 100.71 461.26 56.34 498.26 209.34 498.26 242.34 461.26"/><path class="cls-28" d="M100.34,478.26c.47,2.07,4.32,3.08,12,5,6.36,1.6,11.61,2.91,19,3,9.13.12,10.4-1.78,19-1,6.33.58,5.88,1.62,11,2,7.24.54,9.81-1.42,24-5,12.84-3.23,17.41-3.3,18-6,.41-1.87-1.54-3-8-10a133,133,0,0,1-11-13c-6.05-8.45-5.11-10.7-9-13-4.05-2.39-8.33-1.89-16-1a47.15,47.15,0,0,0-15,4c-1.9.89-4.23,2.13-12,8-7.19,5.44-8.9,7.17-15,12C104.44,473.48,99.72,475.51,100.34,478.26Z"/><rect class="cls-3" x="228.19" y="373.33" width="6.17" height="6.17" rx="3.09"/><rect class="cls-3" x="229.26" y="375.37" width="6.17" height="6.17" rx="3.09"/><rect class="cls-29" x="101.94" y="135.92" width="92.94" height="52.37"/><path class="cls-29" d="M105.51,183.52l43.41-24.65,43.4,24.65"/><polygon class="cls-3" points="115.69 141.63 149.13 173 179.51 140.73 115.69 141.63"/><polygon class="cls-30" points="115.69 141.63 149.13 173 179.51 140.73 115.69 141.63"/><path class="cls-3" d="M57.11,257.75c3.49,11.59,5.52,17.3,3.34,18.95-2,1.5-6.21-1-9.55-3-3.57-2.14-10-6-12.09-13.61-1-3.58-1.88-11.36,2.36-13.86,3.6-2.13,9.16.62,12.11,3.64C55.07,251.67,55.85,253.59,57.11,257.75Z"/><path class="cls-3" d="M74,253.05c1,7.57-3.89,13.5-7.23,17.54-2.75,3.32-6,7.25-8.4,6.46-1-.32-1.46-1.44-2.83-20.85-.21-2.84-.34-5.21.93-7.83,1.72-3.51,5.82-7.18,9.84-6.53C71.33,242.66,73.56,249.41,74,253.05Z"/><rect class="cls-3" x="509.83" y="114.99" width="72.27" height="39.89" rx="7.98"/><polygon class="cls-3" points="557.97 162 547.14 150.86 568.8 150.86 557.97 162"/><rect class="cls-31" x="522.28" y="122.89" width="29.79" height="19.95" rx="8.33"/><polygon class="cls-31" points="526 141.58 530.03 141.58 525.53 145.81 526 141.58"/><text class="cls-32" transform="translate(557.97 140.23)">1</text><rect class="cls-2" x="1" y="527.62" width="565.34" height="32.64"/></g></svg>