<svg xmlns="http://www.w3.org/2000/svg" viewBox="0 0 723.49 206.24"><defs><style>.cls-1{fill:#f7f4f2;}.cls-2{fill:#754c24;}</style></defs><title>HeaderImage</title><g id="Layer_1" data-name="Layer 1"><path class="cls-1" d="M491.55,3a1.5,1.5,0,0,0,0-3,1.5,1.5,0,0,0,0,3Z"/><path class="cls-1" d="M469.43,12.19a1.5,1.5,0,0,0,0-3,1.5,1.5,0,0,0,0,3Z"/><path class="cls-1" d="M439.81,8.45a1.5,1.5,0,0,0,0-3,1.5,1.5,0,0,0,0,3Z"/><path class="cls-2" d="M30,74c0,5-4.77,10.88-12.66,10.88A17.39,17.39,0,0,1,.11,67.27c0-21.86,20.09-35,41-35,22.2,0,32.41,8.88,32.41,22.31s-10,23.86-21.2,23.86c-5.88,0-10.66-1.55-10.66-5.22,0-1.55,1.44-3.33,3-3.33,2.77,0,4,3.33,6.66,3.33,9.32,0,16.09-7,16.09-18.75,0-10.88-7.88-17.1-25.64-17.1-19.2,0-35.07,12.43-35.07,29.64,0,8,4.33,13.1,10.77,13.1,4.88,0,6.88-2.56,6.88-4.33,0-2.33-.67-2.45-.67-3.67s1-2.55,3.11-2.55C29.08,69.6,30,71.82,30,74ZM45.06,46c0,2-1.66,3.11-3.44,4A8.48,8.48,0,0,0,38,56.84c0,7.54,2,20.09,2,34.4,0,10.44-7,16.43-13.1,16.43-4.33,0-6.88-1.77-6.88-4.33a3.43,3.43,0,0,1,3-3.55c2.44,0,2.77,1.67,4.32,1.67s6.44-1.67,6.44-10.66C33.74,78.92,32,67.05,32,57.39s5.66-14.32,9.65-14.32A3.17,3.17,0,0,1,45.06,46Z"/><path class="cls-2" d="M110,93.69c.78-1.11,1.33-1.89,2.22-1.89A2.59,2.59,0,0,1,114.44,94a4.21,4.21,0,0,1-1.11,2.55c-2.78,3.89-6.88,9.88-12.88,9.88-9.54,0-9.88-13.1-9.88-13.1s-8.1,13.1-15.65,13.1c-5.54,0-8.1-5.77-8.1-10.88,0-17.09,11-28.19,17.87-28.19S92.91,73.15,93,73.6c.11-.23,2.55-4.55,5.44-4.55,1.88,0,2.77,1.44,2.77,3.21,0,2.56-4.22,4.67-4.22,14.21,0,7.66.56,14.54,4.33,14.54S107.89,96.57,110,93.69Zm-36.41,1c0,3.55.67,6.32,3.44,6.32,3.33,0,12.32-13.32,12.32-14.65S87.8,84.7,87.8,83s1.33-2.66,1.33-4.33c0-3.88-.78-6.32-3.66-6.32C81.58,72.38,73.59,81.26,73.59,94.69Z"/><path class="cls-2" d="M136.64,96.79c0-7.21,3-15.31,3-18.75,0-1.67-.56-2.22-1.78-2.22-4.44,0-15.87,16-18.43,22.64-2,5.22-2.88,7.33-5.32,7.33s-3.67-1.56-3.67-3.89,1.45-24.2,1.45-28.08.33-5.66,2.77-5.66c2.78,0,4.44,2.44,4.44,6.77s-.33,14.1-.33,14.32c.55-1,11.76-20.31,22.2-20.31a6.15,6.15,0,0,1,6.32,6.21c0,6.88-3.88,15.32-3.88,21.53,0,3.78,1.55,5,4.55,5,3.88,0,8-5.11,10.1-8,.78-1.11,1.33-1.89,2.22-1.89A2.59,2.59,0,0,1,162.5,94a4.15,4.15,0,0,1-1.11,2.55c-2.78,3.89-8.32,10.66-14.87,10.66C140.86,107.23,136.64,102.9,136.64,96.79Z"/><path class="cls-2" d="M232.54,100.9C229,105,223.88,107,218,107c-4.55,0-9.32-2.67-9.32-7.33,0-4.22,4.1-8.1,9.1-8.1a29.73,29.73,0,0,1,11.87,2.66,21.2,21.2,0,0,0,1.67-8.77c0-4.1-.11-16.31-.11-24.42S236.87,47,242.42,47c3.55,0,4.88,1.89,4.88,3.88s-1.33,3.56-3,3.56-2.56-.78-3.67-.78-3.1,2.77-3.1,8.1.22,16.65.22,22.75a26.59,26.59,0,0,1-2.56,12.32c4.22,2,8.33,3.89,13.55,3.89,9,0,18-8.66,18-29.64s-15-33.52-34.52-33.52c-17.87,0-37.07,10.1-37.07,26.2,0,11.1,5.77,15.65,12.43,15.65,8.76,0,7.1-6.66,11.65-6.66,2.11,0,3.11,1.66,3.11,4.11S218,84.47,207.9,84.47c-11.54,0-19.42-7.32-19.42-19.53,0-22.53,23.3-32.52,43.84-32.52,23.2,0,41.62,13.21,41.62,38.85s-13.76,34.63-26,34.63C242.31,105.9,237.42,103.34,232.54,100.9Zm-17.2-1.44c0,1.44,1.55,2.22,3.44,2.22A11.35,11.35,0,0,0,227,98.24a21.22,21.22,0,0,0-7.77-1.67C216.89,96.57,215.34,98,215.34,99.46Z"/><path class="cls-2" d="M303.14,88.8c-4.33,6.66-12,17.43-19.21,17.43-4.1,0-7.76-3.11-7.76-9.44,0-8.32,1.88-16.42,3-23.53.56-3.44,1.22-4.88,3.11-4.88,2.22,0,4.44,2.44,4.44,6.22s-4,15.31-4,20.09c0,3.33,1,4.66,3.33,4.66s10.21-7.88,13.43-13.77a80.69,80.69,0,0,0,6-14c1.11-3.55,1.77-4.77,3.44-4.77,2.44,0,4.33,2.33,4.33,5.21,0,3.44-4,9-4,14,0,6.66,1.33,15,5.33,15,3.66,0,6.88-4.44,9-7.32.78-1.11,1.33-1.89,2.22-1.89A2.59,2.59,0,0,1,328,94a4.15,4.15,0,0,1-1.11,2.55c-2.78,3.89-7.22,9.55-13.21,9.55C305.91,106.12,303.58,98.13,303.14,88.8Z"/><path class="cls-2" d="M323.23,83.48c0-33.3,7-45.18,12.54-45.18,4.44,0,6.66,3.33,6.66,10.21,0,17-11.77,41-11.77,41,0,4.44,3.33,11.54,9.77,11.54,4.55,0,7.66-4.44,9.77-7.32.78-1.11,1.33-1.89,2.22-1.89A2.59,2.59,0,0,1,354.64,94a4.15,4.15,0,0,1-1.11,2.55c-2.78,3.89-6.88,9.88-13.32,9.88C331.77,106.45,323.23,99.35,323.23,83.48Zm6.32-2.22s7.33-18.43,7.33-33.41c0-1.56-.44-2.78-1.33-2.78C333.22,45.07,329.55,59.5,329.55,81.26Z"/><path class="cls-2" d="M379.17,93.69c.78-1.11,1.33-1.89,2.22-1.89A2.59,2.59,0,0,1,383.61,94a4.15,4.15,0,0,1-1.11,2.55c-2.78,3.89-8,10.77-17.65,10.77a16.26,16.26,0,0,1-16.2-16.76c0-13.88,6.77-23,15.42-23,7,0,9.22,5.55,9.22,9.88,0,3.11-1.56,5-3.89,5-1.88,0-3.55-1.45-3.55-3S367,77.26,367,75.93a3.08,3.08,0,0,0-3-3.22c-3.33,0-8.65,6.66-8.65,17.87,0,8,4.21,11.76,10.76,11.76C373.06,102.34,377.06,96.57,379.17,93.69Z"/><path class="cls-2" d="M379.28,90.69c0-12.43,8.44-23.09,15.54-23.09,5.11,0,7,2.44,7,6.77,0,9.22-9.77,18.54-14,21.43.66,3.77,3.55,6.1,8.88,6.1,6.55,0,10.87-5.33,13-8.21.78-1.11,1.33-1.89,2.22-1.89A2.59,2.59,0,0,1,414.13,94,4.15,4.15,0,0,1,413,96.57c-2.77,3.89-8.1,10.21-17.42,10.21S379.28,100.9,379.28,90.69ZM395.82,74.6c0-1.34-.56-1.89-1.56-1.89-2.55,0-7.54,9.1-7.54,17.09C390.05,87.69,395.82,81.37,395.82,74.6Z"/><path class="cls-2" d="M489.17,50.18c0,11.87-4.78,32.19-4.78,40.73,0,6.88,2,9.77,5.89,9.77,10,0,25.86-34.52,25.86-52.39,0-4.44,1.88-6.55,4.55-6.55S525,43.19,525,48.4c0,16.32,1.44,51.61,9.76,51.61S549.43,81.7,549.43,64.5c0-21.31-7-21.2-7-26a4.67,4.67,0,0,1,4.66-4.88c5.89,0,9,7.1,9,28.41,0,24.42-9.32,44.51-21.86,44.51-16.32,0-16.21-35.85-16.21-36.18-.55,1.66-12.43,36.18-28.3,36.18-8.1,0-12.54-6.55-12.54-15.43s4.88-26.19,4.88-38.62c0-10.21-5.21-14.43-11.54-14.43-12.21,0-24,11-24,24.64,0,7.88,5.22,11.88,8.33,11.88,2.44,0,3.22-2.11,5.55-2.11,1.89,0,3.22,1.33,3.22,3.77,0,3-3.55,5.22-7.55,5.22-7.33,0-16-7.11-16-19.65,0-17.2,15.2-29.41,29.85-29.41C480.06,32.42,489.17,38.3,489.17,50.18Z"/><path class="cls-2" d="M583.74,101.79a13.91,13.91,0,0,1-10.43,4.88c-7.77,0-14.54-5.44-14.54-15.31,0-8.55,3.77-13.66,6-15.88a11.17,11.17,0,0,1,10.88-7.54c9.1,0,14,8.54,14,18.31a25.28,25.28,0,0,1-2.88,11.32h1.33c2.66,0,4.66-1,6.77-3.88.78-1.11,1.33-1.89,2.22-1.89A2.59,2.59,0,0,1,599.28,94a4.15,4.15,0,0,1-1.11,2.55c-2.78,3.89-6.1,5.44-11.1,5.44C586,102,584.85,101.9,583.74,101.79ZM578,100a24,24,0,0,1-12.54-13.43,22.82,22.82,0,0,0-.56,5.11c0,5.88,3.55,9.77,8.44,9.77A8.85,8.85,0,0,0,578,100Zm3.33-3.77a19.29,19.29,0,0,0,2.33-9.55c0-8.65-3.33-14-7.88-14-3.55,0-6.11,2.55-6.11,6.88C569.64,86.8,574.64,93.46,581.3,96.24Z"/><path class="cls-2" d="M613.93,96.13c0-5.77,2.78-12.21,2.78-15.21,0-1.66-.67-2-2.78-2a29.07,29.07,0,0,1-4.44-.33A151.92,151.92,0,0,1,601,92.69c-1.56,2.33-2.78,4.22-4,4.22a1.9,1.9,0,0,1-1.89-2c0-1.45.67-2.44,2.22-4.78,2.33-3.44,5.33-8.32,7.77-12.87-4.1-1.89-6.88-4.88-6.88-8.66,0-5.66,3.89-9.65,8.66-9.65,4.55,0,7.43,2.44,7.43,6.43,0,1.89-.88,4.66-2.22,7.77a39.84,39.84,0,0,0,5.33.22c3.89,0,6.55,1.23,6.55,4,0,5.77-2.88,13.32-2.88,18.2,0,2.45,1.22,4.78,4.43,4.78,3.89,0,7-3.78,9.11-6.66.77-1.11,1.33-1.89,2.22-1.89A2.6,2.6,0,0,1,639,94a4.21,4.21,0,0,1-1.11,2.55c-2.78,3.89-7.22,9.55-13.43,9.55C618.59,106.12,613.93,102,613.93,96.13ZM607.49,72a15.11,15.11,0,0,0,1.22-5.1c0-1.67-.88-2.56-2.21-2.56s-2.56,1.45-2.56,3.56C603.94,69.71,605.16,71,607.49,72Z"/><path class="cls-2" d="M633.13,83.48c0-33.3,7-45.18,12.55-45.18,4.44,0,6.66,3.33,6.66,10.21,0,17-11.77,41-11.77,41,0,4.44,3.33,11.54,9.77,11.54,4.55,0,7.66-4.44,9.77-7.32.77-1.11,1.33-1.89,2.22-1.89A2.59,2.59,0,0,1,664.55,94a4.21,4.21,0,0,1-1.11,2.55c-2.78,3.89-6.89,9.88-13.32,9.88C641.68,106.45,633.13,99.35,633.13,83.48Zm6.33-2.22s7.33-18.43,7.33-33.41c0-1.56-.45-2.78-1.33-2.78C643.12,45.07,639.46,59.5,639.46,81.26Z"/><path class="cls-2" d="M702.51,46.07c0,7.44-4.78,23.09-11.55,36.85,1.22,9,3.78,16.32,8.77,16.32,4.11,0,6-2.67,8.1-5.55.78-1.11,1.34-1.89,2.22-1.89A2.59,2.59,0,0,1,712.27,94a4.15,4.15,0,0,1-1.11,2.55c-2.77,3.89-5.55,7.66-12.21,7.66s-11.43-6-13.43-11.65c-5.55,8.76-11.76,15.09-17.75,15.09-5.78,0-10.1-4.1-10.1-11.87,0-15.32,9.32-27.31,19.09-27.31A11.24,11.24,0,0,1,684,70.93s-.33-4.88-.33-10.76c0-12.43,3.55-23.76,12-23.76C699.84,36.41,702.51,40.52,702.51,46.07ZM684.3,84.81c-.55-3.22-2.55-3.78-2.55-5.77a7.6,7.6,0,0,1,.78-3.56s-.45-2.11-3.78-2.11c-8.43,0-14.09,10.88-14.09,22.43,0,4.77,2.22,6.65,4.44,6.65C673.54,102.45,679.2,94.69,684.3,84.81ZM690,72.15c4.22-10.32,7.11-20.42,7.11-25.19,0-3.11-.78-4.22-2.33-4.22-2.56,0-5,6.77-5,17.09C689.74,63.39,689.74,67.71,690,72.15Z"/><path class="cls-2" d="M723.38,101.79c0,4-4.89,5.88-6.89,5.88a4.65,4.65,0,0,1-4.32-4.33c0-2.88,2.88-6.88,6-6.88C721.6,96.46,723.38,97.79,723.38,101.79ZM721.27,37.3c0,3.66-1.78,19.32-1.78,29.86s1.67,15.65,1.67,18.42-2,4.11-4.33,4.11-4-.89-4-3,1-10.54,1-20.42-1.11-24.08-1.11-28.08,2.44-5.66,4.22-5.66C720.6,32.53,721.27,33.64,721.27,37.3Z"/></g></svg>