<svg id="Layer_1" data-name="Layer 1" xmlns="http://www.w3.org/2000/svg" xmlns:xlink="http://www.w3.org/1999/xlink" viewBox="0 0 44.56 97.11"><defs><style>.cls-1,.cls-4{fill:#29abe2;}.cls-1,.cls-6,.cls-7{stroke:#42210b;}.cls-1,.cls-3,.cls-6,.cls-7,.cls-8{stroke-miterlimit:10;}.cls-2,.cls-7{fill:none;}.cls-3{fill:#fff;stroke:#000;}.cls-5{clip-path:url(#clip-path);}.cls-6{fill:#42210b;}.cls-8{fill:#e6b53c;stroke:#e69f3c;stroke-width:5px;}.cls-9{clip-path:url(#clip-path-2);}.cls-10{fill:#e69f3c;}</style><clipPath id="clip-path" transform="translate(-27.19 -1.5)"><ellipse class="cls-1" cx="45.34" cy="82.31" rx="17.65" ry="15.8"/></clipPath><clipPath id="clip-path-2" transform="translate(-27.19 -1.5)"><ellipse class="cls-2" cx="51.29" cy="42.32" rx="38.39" ry="14.43" transform="matrix(0.15, -0.99, 0.99, 0.15, 1.88, 86.82)"/></clipPath></defs><title>logo-icon</title><ellipse class="cls-3" cx="18.15" cy="80.69" rx="17.65" ry="15.8"/><ellipse class="cls-4" cx="18.15" cy="80.81" rx="17.65" ry="15.8"/><g class="cls-5"><ellipse class="cls-6" cx="19.27" cy="66.56" rx="17.65" ry="15.8"/></g><ellipse class="cls-7" cx="18.15" cy="80.81" rx="17.65" ry="15.8"/><ellipse class="cls-8" cx="51.33" cy="42.03" rx="38.39" ry="14.43" transform="translate(-24.99 85.11) rotate(-81.53)"/><g class="cls-9"><ellipse class="cls-10" cx="46.86" cy="74.24" rx="0.93" ry="15.71" transform="translate(-57.96 113.73) rotate(-85.57)"/><ellipse class="cls-10" cx="47.88" cy="66.88" rx="0.98" ry="15.71" transform="translate(-49.68 107.95) rotate(-85.57)"/><ellipse class="cls-10" cx="49.54" cy="58.46" rx="0.98" ry="15.71" transform="translate(-39.76 101.85) rotate(-85.57)"/><ellipse class="cls-10" cx="50.27" cy="49.64" rx="1.33" ry="15.71" transform="translate(-30.27 94.44) rotate(-85.59)"/><ellipse class="cls-10" cx="56.08" cy="9.57" rx="0.93" ry="15.71" transform="translate(15.02 63.24) rotate(-85.57)"/><ellipse class="cls-10" cx="55.06" cy="16.93" rx="0.98" ry="15.71" transform="translate(6.74 69.01) rotate(-85.57)"/><ellipse class="cls-10" cx="53.4" cy="25.34" rx="0.98" ry="15.71" transform="translate(-3.18 75.12) rotate(-85.57)"/><ellipse class="cls-10" cx="52.66" cy="34.17" rx="1.33" ry="15.71" transform="translate(-12.64 82.55) rotate(-85.59)"/><ellipse class="cls-10" cx="51.31" cy="42.16" rx="1.33" ry="15.71" transform="translate(-21.86 88.57) rotate(-85.59)"/></g><path class="cls-1" d="M59.29,82.45a7.45,7.45,0,0,1,0,2.76,6.35,6.35,0,0,1-.87,2.29,6.67,6.67,0,0,1-1.75,1.83,8,8,0,0,1-1.44.83,8.71,8.71,0,0,1-1.95.64" transform="translate(-27.19 -1.5)"/><ellipse class="cls-6" cx="18.89" cy="78.84" rx="7.2" ry="1.76"/></svg>