<svg xmlns="http://www.w3.org/2000/svg" viewBox="0 0 848.82 576.48"><defs><style>.cls-1,.cls-3{fill:#65c8d0;}.cls-1,.cls-4,.cls-5{stroke:#42210b;}.cls-1,.cls-4,.cls-5,.cls-6{stroke-miterlimit:10;stroke-width:5.08px;}.cls-2{fill:#754c24;}.cls-4,.cls-6{fill:#32000c;}.cls-5{fill:#f2f2f2;}.cls-6{stroke:#32000c;}.cls-7{fill:#f7f4f2;}</style></defs><title>Logo-New</title><g id="Layer_1" data-name="Layer 1"><path class="cls-1" d="M134.41,197.21"/><path class="cls-1" d="M133.39,193.3"/><path class="cls-1" d="M377.81,81.58"/><path class="cls-2" d="M41,219.47c4.37,3.35,6.12,12.71,1,22.32-5.84,10.92-17.35,17.47-26.9,11.54C-5.27,241-4.24,203.5,13.42,177.43,32.12,149.9,49.61,146.6,60,156.75,70.62,167.13,70.3,184.89,61.59,197c-4.63,6.39-9.52,10.77-12.67,8.26-1.33-1.07-1.75-4-.54-5.74,2.16-3.17,5.94-2.19,8-5.14,7.36-10.24,7.52-22.34-2-31.26-8.62-8.11-21.34-4.7-36.14,17.06-16,23.8-15.16,54.2.65,64.23,7.32,4.78,14.6,2.19,18.82-5.76,3.22-6,2.36-10,.78-11.2-2.06-1.51-2.62-.76-3.7-1.55s-1.57-2.89-.08-5.47C36.46,217.59,39.06,218,41,219.47ZM28.35,182.19c1.69,1.41,1.28,4.17.62,6.93-.5,2.28.15,6.88,3,9.17,6.53,5.15,18.84,11.42,31.14,21.16a20.3,20.3,0,0,1,5.35,25.47c-2.81,4.88-6,6.75-8.26,5.16A4.67,4.67,0,0,1,59,244.36c1.59-2.83,3.29-2.14,4.31-3.92s2.85-8.33-5-14.29c-10.33-7.9-22-13.73-30.41-20.2s-8.11-16.78-4.83-21.64C24.7,181.87,27,181.09,28.35,182.19Z"/><path class="cls-2" d="M123.42,153.66c-.07-1.55-.1-2.65.74-3.37a3.05,3.05,0,0,1,3.68,0c.63.74.71,1.46.77,3,.15,5.46.74,13.62-4.51,18.62-8.31,8-18.54-1.74-18.56-1.79s3,17.43-3,24.43c-4.45,5.18-11.1,3.48-15.27-.28-14-12.51-13.47-32.29-7-39s12-3.24,12.45-3c-.07-.27-1.06-6,1.71-8.64a3.26,3.26,0,0,1,5,.09c1.87,2.06-.56,7.57,6.62,15.19,5.75,6.12,11.39,11.07,14.74,7.88S123.52,157.77,123.42,153.66ZM92.07,187c2.84,2.67,5.59,4.1,7.87,1.49,2.62-3.09.08-21.64-.83-22.73s-2.66.13-3.94-1.17-.85-3.33-2.12-4.64c-3-3-5.57-4.26-8.2-1.49C81.23,162.19,81.25,177,92.07,187Z"/><path class="cls-2" d="M151.31,135.71c-4.77-6.19-7-15.4-9.19-18.39-1.09-1.45-2-1.52-3.32-.61-4.87,3.32-5.54,25.81-3.1,33.32,1.76,5.91,2.44,8.33.19,10.25s-4.46,1.65-6.14-.26-16-21-18.78-24.3-3.73-5-1.27-7.05c2.8-2.36,6.21-1.68,9.23,2s9.53,12.06,9.69,12.25c-.34-1.19-2.49-26.62,9-34.47,3.71-2.56,8.48-2.38,10.78.85,4.3,6.06,5.61,16.17,9.64,21.56,2.42,3.28,4.75,3.26,7.78,1.24,3.9-2.6,5-9.78,5.5-13.71.15-1.49.27-2.55,1.22-3.12s3.09-.32,3.68.57.5,1.51.34,3c-.64,5.24-2.21,14.72-8.68,19.09C162.28,141.66,155.36,141,151.31,135.71Z"/><path class="cls-2" d="M258.21,86.65c-2.53,5.34-7.52,9.27-14.17,11.8-5.14,2-11.7,1.64-13.9-2.74-2-4,.94-9.61,6.84-11.83a41.35,41.35,0,0,1,15.15-2.49,18.32,18.32,0,0,0-1.55-9.1c-1.65-4-6.7-15.68-10-23.49s1.79-16.06,9.29-18.23c4.78-1.39,7.25,0,8,1.92s-.51,3.95-2.72,4.59-3.66.23-5.13.66-3,3.94-1,9.1,6.67,16,9,21.94c1.91,4.84,2.4,9.14,1.69,12.89,5.79.31,11.33.64,17.54-1.12,10.6-3,18.89-14.06,12.83-34.75-5.84-20.67-30.82-28.72-57.6-20.17-24.56,7.66-44.24,28.16-35.76,43.17,5.66,10.36,14.67,11.5,22.58,8.27,10.48-4.22,5.52-9.71,11.11-11.83,2.6-1,4.55.2,5.59,2.53s-2,9.12-13.9,14c-13.52,5.55-26.28,3.25-32.78-8.08C177,52.77,202,29.42,230.61,20.64c32.18-10.24,62.47-2,69,23.32,6.74,25.37-7.24,37.77-21.4,41.93C271.54,87.8,264.91,87.1,258.21,86.65Zm-20.56,5.8c.65,1.37,2.77,1.42,4.93.6a14.87,14.87,0,0,0,8-6.74A29.85,29.85,0,0,0,240.86,88C238.15,89,237,91.09,237.65,92.45Z"/><path class="cls-2" d="M341.45,54.89c-4.4,7.41-11.55,19.57-20.19,21.21-5,.92-10.2-1.23-11.92-7.48-2.25-8.23-2-16.73-2.39-24.06-.16-3.55.35-5.15,2.86-5.62a6.55,6.55,0,0,1,7.36,5.11c.84,3.75-1.49,16.15-.25,20.88.83,3.3,2.39,4.38,5.26,3.86s10.89-10,14-16.45a80.85,80.85,0,0,0,5.25-15.05c.85-3.74,1.55-5.08,3.8-5.35a5.8,5.8,0,0,1,6.66,4.56c.5,3.44-3.89,9.6-3,14.61,1.12,6.67,4.17,14.78,9.13,14.23,4.56-.5,8-5.33,10.36-8.46.86-1.2,1.48-2,2.62-2.13,1.29-.11,3,1,3.09,2s-.27,1.48-1.14,2.67c-3.11,4.19-7.91,10.33-15.26,11.15C348.09,71.67,343.77,64.15,341.45,54.89Z"/><path class="cls-2" d="M366.64,46.66C362.38,13.23,371.17.45,379.37,0c6.48-.36,9.92,2.89,10.32,9.82.67,17-13,42-12.72,42.08a13.1,13.1,0,0,0,13.42,10.89c5.71-.26,9.42-4.83,12-7.81,1-1.14,1.65-1.94,2.8-2s2.89,1.19,2.91,2.19-.39,1.46-1.36,2.6c-3.46,4-8.33,10.1-16.29,10.47C380.09,68.78,368.71,62.59,366.64,46.66Zm8.06-2.88c-.12,0,8-19.17,7-34.23-.12-1.57-.85-2.76-2.12-2.69C376.2,7,372.39,21.91,374.7,43.78Z"/><path class="cls-2" d="M439.62,55.41c1.06-1.08,1.82-1.83,3-1.77s2.77,1.38,2.7,2.38-.52,1.43-1.59,2.5C439.88,62.26,433,68.8,421.11,68.65c-9.58-.13-20.26-5.88-20.81-16.72-.69-14,8.19-23.44,20.14-23.33,9.59.11,12.4,5.86,12.23,10.2-.12,3.13-2.24,5-5.31,4.9-2.49-.06-4.67-1.54-4.65-3.1s1.51-2.22,1.53-3.56-1.14-3.27-4-3.29c-4.55-.06-11.63,6.71-11.33,18,.19,8.06,5.57,11.76,13.77,11.87C431.44,63.77,436.73,58.2,439.62,55.41Z"/><path class="cls-2" d="M439.93,52.4c.55-12.54,12.68-22.74,22.46-21.93,7,.57,9.21,3.3,8.65,7.63-1.28,9.2-15,17.42-20.5,20,.55,3.86,4,6.42,10.63,7,8.16.71,14.32-4,17.46-6.56,1.16-1,2-1.69,3.12-1.55s2.64,1.58,2.47,2.57S483.56,61,482.4,62c-4.17,3.45-11.67,8.93-23.14,7.94S439.44,62.69,439.93,52.4ZM463,37.6c.14-1.33-.54-2-1.89-2.06C457.63,35.25,450.17,44,449.6,52,454,50.14,462.22,44.39,463,37.6Z"/><path class="cls-2" d="M594.21,38.28c-4.78,11.43-18.64,29.09-21.79,37.37-2.6,6.65-1.33,10.17,3.21,11.7,11.15,3.64,45.55-21.37,54.5-38,2.09-4.19,5.54-5.19,9-3.73s4.85,3.77,2.26,8.65c-8,15.35-23.76,48.92-14.75,53.3s26.09-8.29,35.91-23.89c12.06-19.4,3.33-23.84,5.89-28.2,1.38-2.36,4.9-3.38,8.53-1.49,7.41,3.88,7.11,12.57-5.28,31.77-14.42,22-35.74,34.1-49.08,27.54-17.52-8.4-.8-41.72-.56-42.15-1.82,1.21-31.63,27.65-49.37,21.64-9.32-3.13-12.22-11-9.08-19.6s15.6-23.57,20.33-35.59c3.85-9.89-1.72-16.16-10.52-18.51-17.09-4.6-36.7,3-40.12,16.47a11.47,11.47,0,0,0,7.65,14.11c3.16.73,4.79-1.1,7.82-.36,2.44.6,3.74,2.34,3,4.73-1,2.94-6.15,3.95-11.23,2.76-9.22-2.21-18.59-11.4-15.63-23.83,3.92-17.12,28.89-25.2,49.69-19.62C588.79,17.09,599,26.85,594.21,38.28Z"/><path class="cls-2" d="M676.92,139.72a19.25,19.25,0,0,1-13.53-2.94c-7.76-5.16-11.59-14.12-5.85-23a22.38,22.38,0,0,1,16-10.23c4.05-2.68,10.39-3.16,16.62,1,10,6.67,9.44,17.92,2.91,26.2a25.34,25.34,0,0,1-10.39,7.54l1.33,1c2.64,2,5.26,2.59,9.29,1.75,1.52-.34,2.6-.57,3.47.12s1.34,2.75.65,3.58-1.32.95-2.83,1.28c-5.36,1.12-9.59-.06-14.5-3.67C679,141.49,678,140.6,676.92,139.72Zm-4.64-5.57c-4-6.22-6.08-13.56-4.73-20.28a21.83,21.83,0,0,0-3.68,4.16c-3.53,5.23-2.18,10.92,2.78,14.2A12.61,12.61,0,0,0,672.28,134.15Zm5.79-.94a19.38,19.38,0,0,0,8.56-6.55c5.65-7.45,5.58-14.58.62-17.87-3.86-2.57-8.24-2.08-10.9,1.75C671.94,116.93,673.15,126.12,678.07,133.21Z"/><path class="cls-2" d="M709.85,158.19c4.15-4.71,11.45-7.58,13.64-10,1.21-1.35.82-2.21-1.22-4a50.47,50.47,0,0,1-4.09-4c-6.25,2-13.15,3.59-18.24,4.74-3.13.72-5.6,1.37-6.78.43a2.16,2.16,0,0,1-.49-3.12c1-1.21,2.31-1.56,5.44-2.31,4.64-1.09,11-2.78,16.62-4.55-2.77-4.95-3.58-9.7-1-12.89,3.86-4.8,10.72-5,15.68-.86,4.71,3.93,5.85,8.54,3,11.81-1.36,1.55-4.25,3-7.79,4.44,1.37,1.52,3.11,3.06,5,4.82,3.77,3.43,5.39,6.84,3.32,9.06-4.31,4.6-12.57,8.1-16.16,12-1.8,2-2.41,4.84.45,7.62,3.43,3.35,9,3.18,13.07,2.87,1.53-.15,2.62-.24,3.39.58s1,3,.21,3.77-1.41.79-2.94.93c-5.41.42-13.5.83-18.93-4.45C706.9,170.06,705.62,163,709.85,158.19Zm11-25.16a14.29,14.29,0,0,0,4.84-3.2,2.6,2.6,0,0,0-.45-4,3.65,3.65,0,0,0-5.1.81C718.89,128.11,719.21,130.23,720.84,133Z"/><path class="cls-2" d="M736.84,164.94c25.31-26.2,41.37-28.66,46.72-22.61,4.24,4.74,3.62,9.74-1.91,14.93-13.77,12.54-43,19.05-42.86,19.28-3.45,3.43-6.13,11.87-.91,18,3.69,4.36,9.74,4.22,13.8,4.27,1.53,0,2.61,0,3.31.91s.75,3.17-.08,3.88-1.46.68-3,.68c-5.39-.06-13.44.17-18.58-5.92C726.66,190.39,724.81,177.41,736.84,164.94Zm7.37,4.23c-.05-.1,20.92-7,32.86-18.32,1.23-1.19,1.78-2.6.94-3.54C775.78,144.8,761.06,152.35,744.21,169.17Z"/><path class="cls-2" d="M824.91,215.44c-6.64,4.79-24,8.46-40.81,9.6-7,7.36-11.65,14.93-8.4,20.72,2.67,4.79,6.23,5.42,10.17,6.22,1.49.27,2.55.48,3.1,1.57s.28,3.47-.63,4.07-1.52.44-3,.16c-5.25-1.06-10.3-2.12-14.59-9.78s-2.38-16.76,1.08-22.8c-11.56-.42-21.34-2.58-25.8-8.64-4.29-5.84-4.34-13,2-18.67,12.36-11.29,30.13-10.34,37.89,1a18.71,18.71,0,0,1,3.48,10s4-3.7,9-7.73c10.63-8.5,23.36-12.08,29.92-1A11.33,11.33,0,0,1,824.91,215.44Zm-47.25,3.18c2.37-2.8,1.36-5.45,3.07-6.81a6.57,6.57,0,0,1,3.64-1.53s1.49-2-1.08-5.76c-6.57-9.68-20.28-7.82-29.76.46-3.95,3.41-3.81,7-2.15,9.28C754.71,218.82,765.39,219.43,777.66,218.62Zm15.12-1.86c12.08-1.83,23.13-4.68,27.34-7.82,2.74-2,3.13-3.78,2-5.78-2-3.31-9.76-1.8-18.73,5.12C800.25,210.66,796.48,213.55,792.78,216.76Z"/><path class="cls-2" d="M787.75,276c-3.69,2.21-8.17-2.76-9.34-5.16s-.72-6.39,1.39-7.77c2.62-1.72,8-.57,9.85,3.34C791.68,270.68,791.44,273.72,787.75,276Zm58.08-40.17c-3.37,2.17-18.86,9-28.51,15.22S804,262.31,801.41,263.91s-4.95-.22-6.35-3.17-1.64-5.54.27-6.81,10.21-5,19.19-11,21.11-16.17,24.71-18.67,6.84-.09,8,2.45C849.78,232,849.18,233.61,845.83,235.78Z"/><path class="cls-2" d="M79.42,564.64c-3.84,5.92-8.64,9.84-13.76,9.84-9,0-14.8-9.68-14.8-18.16,0-4,1.44-5.68,2.48-5.68,1.84,0,2.24,1.28,8.24,1.28,2.16,0,3.52-2.24,4.8-2.24a2.65,2.65,0,0,1,2.4,2.88c0,1.92-2.64,3.52-6.24,3.52a46.19,46.19,0,0,1-5.36-.64c-1,0-1.12.48-1.12,1.2,0,6.72,2.88,13.84,9.68,13.84,4.24,0,8.48-4.48,11.84-10.88a81.8,81.8,0,0,1-3-22.64c0-11.2,3.84-16.24,8.48-16.24,3.6,0,6.16,2.72,6.16,9.6a69.75,69.75,0,0,1-6.88,29.12c2.08,6.8,5,11,7.2,11,2.8,0,4.72-3.2,6.24-5.28.56-.8,1-1.36,1.6-1.36a1.87,1.87,0,0,1,1.6,1.6,3,3,0,0,1-.8,1.84c-2,2.8-5,7.12-9.28,7.12C85.42,574.32,82.06,570.72,79.42,564.64Zm1.28-12A68.62,68.62,0,0,0,85,530.16c0-3-.72-4.72-2.24-4.72s-3.52,1.76-3.52,11.84A81.52,81.52,0,0,0,80.7,552.64Z"/><path class="cls-2" d="M95.26,561.68a146.71,146.71,0,0,1,1.2-16.08H93.58c-1.2,0-1.44-.48-1.44-1.2s1-2.72,2-2.72c.64,0,1.68,0,2.8.08.4-2.8.8-5.36,1.28-7.28.48-2.24,1-3,1.84-3,1.52,0,4.16,1.68,4.16,3.52,0,.64-1,2.16-1.68,4.32l-.72,2.56h2.8c4.16,0,4-.8,4.88-.8s2.24,1.6,2.24,2.64-3.2,1.84-7.12,1.84h-3.44a109.17,109.17,0,0,0-1,15.68c0,8.64,2,9.84,4.72,9.84s5.36-3.84,6.88-5.92c.56-.8,1-1.36,1.6-1.36a1.87,1.87,0,0,1,1.6,1.6,3,3,0,0,1-.8,1.84c-2,2.8-5.36,7.44-10.56,7.44C98.86,574.64,95.26,571.68,95.26,561.68Z"/><path class="cls-2" d="M121.66,528.64c0,3.28-4,8.88-6.56,8.88-1.2,0-1.36-.8-1.36-1.6s2.32-2.08,2.32-4.48c0-1.52-1.28-2.32-1.28-3.68A3.66,3.66,0,0,1,118.3,524C120.62,524,121.66,525.36,121.66,528.64Z"/><path class="cls-2" d="M140.94,567.44h.16c2.32,0,3.28-.24,4.8-2.32.56-.8,1-1.36,1.6-1.36a1.87,1.87,0,0,1,1.6,1.6,3,3,0,0,1-.8,1.84c-2,2.8-4.8,3.36-7.68,3.36h-1a8.08,8.08,0,0,1-7,3.76c-3.76,0-6.16-1.6-6.16-4.4,0-2.56,2.4-3.92,5-3.92a27,27,0,0,1,4.8.88,3.89,3.89,0,0,0,.08-1c0-5-2.48-7.44-5.12-9.36-3.28,5.76-7.28,11.92-9.44,15a5.09,5.09,0,0,1-4.24,2.56,2.1,2.1,0,0,1-2.16-2.32c0-1.52,1.84-1.76,2.88-2.72,2.72-2.48,7-9,10.16-14.56a8.81,8.81,0,0,1-3.6-7.36,6.47,6.47,0,0,1,6.4-6.64c3.36,0,5,1.76,5,4.56,0,1.44-1.12,4.16-2.8,7.36,3.44,2.72,7.76,5.84,7.76,12.56A12.37,12.37,0,0,1,140.94,567.44Zm-10.16-17.36a12,12,0,0,0,1.52-3.92c0-.8-.32-1.6-1.2-1.6s-1.68.88-1.68,2.4A4.31,4.31,0,0,0,130.78,550.08Zm4.56,19.76a24.59,24.59,0,0,0-3.6-.88c-1,0-1.44.48-1.44,1.12s.88,1.2,2,1.2A3.8,3.8,0,0,0,135.34,569.84Z"/><path class="cls-2" d="M210,567.68a6.23,6.23,0,0,0,5.28-2.56c.56-.8,1-1.36,1.6-1.36a1.87,1.87,0,0,1,1.6,1.6,3,3,0,0,1-.8,1.84,9.36,9.36,0,0,1-7.6,3.92c-5.12,0-7.76-2.16-7.76-2.16s-3.36,5.28-9.52,5.28a8.94,8.94,0,0,1-9-6.8s-3.6,6.72-9.84,6.72c-5.36,0-7-6.08-7-14A35.28,35.28,0,0,1,169,547.68a2.88,2.88,0,0,1,2.88-2.08,3.17,3.17,0,0,1,3.2,3c0,1.84-3.28,3.28-3.28,11.28,0,4.32.08,10.08,3.6,10.08,4.48,0,8.72-10.24,8.72-17.6,0-2.24.72-3.52,2.56-3.52s2.88,1,2.88,3.36-1.6,8.08-1.6,11.44,2.16,6.8,5.52,6.8c4.72,0,6.24-6,6.24-6a27.09,27.09,0,0,1-1.44-8.56c0-4.72,1.28-8.48,3.76-8.48s4.08,1.36,4.08,6.4-2.08,11.84-2.08,11.84S205.74,567.68,210,567.68Z"/><path class="cls-2" d="M234.7,567c0-3.68.64-10.4.64-12.24,0-1.6-.32-2.24-1.52-2.24-3.28,0-10.88,12.64-12,18.4-1,5-1.84,5.6-3.6,5.6-1.29,0-2-1.2-2-3.12,0-.48-.08-8.24-.08-15.36,0-15.68,1.2-34.8,9.28-34.8,3.12,0,5.52,2.24,5.52,7.12,0,11.84-10.16,31-10.16,31l-.16,3.12c.32-.8,7.92-16.64,14.64-16.64,3.6,0,5.12,2,5.12,5.68,0,5-.64,9.28-.64,12.32,0,2.72,1,4.56,3.44,4.56,3.44,0,5.68-3.2,7.2-5.28.56-.8,1-1.36,1.6-1.36a1.87,1.87,0,0,1,1.6,1.6,3,3,0,0,1-.8,1.84c-2,2.8-5,7.12-10.4,7.12C237.26,574.32,234.7,571,234.7,567Zm-14.16-11.12S227,541,227,530.32c0-1.76-.64-2.72-1.76-2.72C222.06,527.6,220.54,543.68,220.54,555.84Z"/><path class="cls-2" d="M280.14,565.12c.56-.8,1-1.36,1.6-1.36a1.87,1.87,0,0,1,1.6,1.6,3,3,0,0,1-.8,1.84c-2,2.8-5,7.12-9.28,7.12-6.88,0-7.12-9.44-7.12-9.44s-5.84,9.44-11.28,9.44c-4,0-5.84-4.16-5.84-7.84,0-12.32,7.92-20.32,12.88-20.32a5.75,5.75,0,0,1,6,4.48c.08-.16,1.84-3.28,3.92-3.28,1.36,0,2,1,2,2.32,0,1.84-3,3.36-3,10.24,0,5.52.4,10.48,3.12,10.48S278.62,567.2,280.14,565.12Zm-26.25.72c0,2.56.48,4.56,2.49,4.56,2.4,0,8.88-9.6,8.88-10.56s-1.12-1.2-1.12-2.4,1-1.92,1-3.12c0-2.8-.56-4.56-2.64-4.56C259.66,549.76,253.89,556.16,253.89,565.84Z"/><path class="cls-2" d="M280.37,561.68a146.71,146.71,0,0,1,1.2-16.08h-2.88c-1.2,0-1.44-.48-1.44-1.2s1-2.72,2-2.72c.64,0,1.68,0,2.8.08.4-2.8.8-5.36,1.28-7.28.48-2.24,1-3,1.84-3,1.52,0,4.16,1.68,4.16,3.52,0,.64-1,2.16-1.68,4.32l-.72,2.56h2.8c4.16,0,4-.8,4.88-.8s2.24,1.6,2.24,2.64-3.2,1.84-7.12,1.84h-3.44a109.17,109.17,0,0,0-1,15.68c0,8.64,2,9.84,4.72,9.84s5.36-3.84,6.88-5.92c.56-.8,1-1.36,1.6-1.36a1.87,1.87,0,0,1,1.6,1.6,3,3,0,0,1-.8,1.84c-2,2.8-5.36,7.44-10.56,7.44C284,574.64,280.37,571.68,280.37,561.68Z"/><path class="cls-2" d="M306.77,528.64c0,3.28-4,8.88-6.56,8.88-1.2,0-1.36-.8-1.36-1.6s2.32-2.08,2.32-4.48c0-1.52-1.28-2.32-1.28-3.68a3.66,3.66,0,0,1,3.52-3.76C305.73,524,306.77,525.36,306.77,528.64Z"/><path class="cls-2" d="M326.05,567.44h.16c2.32,0,3.28-.24,4.8-2.32.56-.8,1-1.36,1.6-1.36a1.87,1.87,0,0,1,1.6,1.6,3,3,0,0,1-.8,1.84c-2,2.8-4.8,3.36-7.68,3.36h-1a8.08,8.08,0,0,1-7,3.76c-3.76,0-6.16-1.6-6.16-4.4,0-2.56,2.4-3.92,5-3.92a27,27,0,0,1,4.8.88,3.89,3.89,0,0,0,.08-1c0-5-2.48-7.44-5.12-9.36-3.28,5.76-7.28,11.92-9.44,15a5.09,5.09,0,0,1-4.24,2.56,2.1,2.1,0,0,1-2.16-2.32c0-1.52,1.84-1.76,2.88-2.72,2.72-2.48,7-9,10.16-14.56a8.81,8.81,0,0,1-3.6-7.36,6.47,6.47,0,0,1,6.4-6.64c3.36,0,5,1.76,5,4.56,0,1.44-1.12,4.16-2.8,7.36,3.44,2.72,7.76,5.84,7.76,12.56A12.37,12.37,0,0,1,326.05,567.44Zm-10.16-17.36a12,12,0,0,0,1.52-3.92c0-.8-.32-1.6-1.2-1.6s-1.68.88-1.68,2.4A4.31,4.31,0,0,0,315.89,550.08Zm4.56,19.76a24.59,24.59,0,0,0-3.6-.88c-1,0-1.44.48-1.44,1.12s.88,1.2,2,1.2A3.8,3.8,0,0,0,320.45,569.84Z"/><path class="cls-2" d="M352.45,562.4c0-8.24,1.84-15.84,4-15.84a3,3,0,0,1,3.12,3.28c0,1.92-2.4,5-2.4,11.52s2.32,9.36,4.72,9.36c2.8,0,5.84-3.52,7.36-5.6.56-.8,1-1.36,1.6-1.36a1.87,1.87,0,0,1,1.6,1.6,3,3,0,0,1-.8,1.84c-2,2.8-5.76,7.76-9.84,7.76C356.37,575,352.45,570.64,352.45,562.4Zm10.72-27c0,2.48-2.48,4.08-4.4,4.08a3.23,3.23,0,0,1-3.28-3.2c0-2.48,1.44-4.56,3.68-4.56C361.17,531.76,363.17,533,363.17,535.44Z"/><path class="cls-2" d="M386.85,567.36c0-5.2,2.16-11,2.16-13.52,0-1.2-.4-1.6-1.28-1.6-3.2,0-11.44,11.52-13.28,16.32-1.44,3.76-2.08,5.28-3.84,5.28S368,572.72,368,571s1-17.44,1-20.24.24-4.08,2-4.08c2,0,3.2,1.76,3.2,4.88s-.24,10.16-.24,10.32c.4-.72,8.48-14.64,16-14.64a4.44,4.44,0,0,1,4.56,4.48c0,5-2.8,11-2.8,15.52,0,2.72,1.12,3.6,3.28,3.6,2.8,0,5.76-3.68,7.28-5.76.56-.8,1-1.36,1.6-1.36a1.87,1.87,0,0,1,1.6,1.6,3,3,0,0,1-.8,1.84c-2,2.8-6,7.68-10.72,7.68C389.89,574.88,386.85,571.76,386.85,567.36Z"/><path class="cls-2" d="M409.41,554.16a8.16,8.16,0,0,1-3.76-7,6.35,6.35,0,0,1,6.24-6.64,5.22,5.22,0,0,1,5.28,5.44,7.81,7.81,0,0,1-1.2,3.92l-1.36,2.48c4.08,2.64,9.28,5.84,9.28,12.64a12.37,12.37,0,0,1-.32,2.48h.16c2.32,0,3.28-.24,4.8-2.32.56-.8,1-1.36,1.6-1.36a1.87,1.87,0,0,1,1.6,1.6,3,3,0,0,1-.8,1.84c-2,2.8-4.8,3.36-7.68,3.36h-1a8.08,8.08,0,0,1-7,3.76c-3.76,0-6.16-1.6-6.16-4.4,0-2.56,2.4-3.92,5-3.92a27,27,0,0,1,4.8.88,3.89,3.89,0,0,0,.08-1c0-5.52-3.36-7.76-6.72-9.84-1.92,3-4.08,6.08-5.6,8.32-1.12,1.68-2,3-2.88,3a1.37,1.37,0,0,1-1.36-1.44c0-1,.48-1.76,1.6-3.44C405.49,560.32,407.65,557.2,409.41,554.16Zm2.32-9.6c-.88,0-1.76.88-1.76,2.4a4.24,4.24,0,0,0,1.76,3.2,10.78,10.78,0,0,0,1.36-3.76C413.09,545.12,412.61,544.56,411.73,544.56ZM418,569.84a24.59,24.59,0,0,0-3.6-.88c-1,0-1.44.48-1.44,1.12s.88,1.2,2,1.2A3.8,3.8,0,0,0,418,569.84Z"/><path class="cls-2" d="M429,562.4c0-8.24,1.84-15.84,4-15.84a3,3,0,0,1,3.12,3.28c0,1.92-2.4,5-2.4,11.52s2.32,9.36,4.72,9.36c2.8,0,5.84-3.52,7.36-5.6.56-.8,1-1.36,1.6-1.36a1.87,1.87,0,0,1,1.6,1.6,3,3,0,0,1-.8,1.84c-2,2.8-5.76,7.76-9.84,7.76C432.93,575,429,570.64,429,562.4Zm10.72-27c0,2.48-2.48,4.08-4.4,4.08a3.23,3.23,0,0,1-3.28-3.2c0-2.48,1.44-4.56,3.68-4.56C437.73,531.76,439.73,533,439.73,535.44Z"/><path class="cls-2" d="M476.77,530.8c0,5.36-3.44,16.64-8.32,26.56.88,6.48,2.72,11.76,6.32,11.76,3,0,4.32-1.92,5.84-4,.56-.8,1-1.36,1.6-1.36a1.87,1.87,0,0,1,1.6,1.6,3,3,0,0,1-.8,1.84c-2,2.8-4,5.52-8.8,5.52s-8.24-4.32-9.68-8.4c-4,6.32-8.48,10.88-12.8,10.88-4.16,0-7.28-3-7.28-8.56,0-11,6.72-19.68,13.76-19.68a8.11,8.11,0,0,1,5.2,1.76s-.24-3.52-.24-7.76c0-9,2.56-17.12,8.64-17.12C474.85,523.84,476.77,526.8,476.77,530.8Zm-13.12,27.92c-.4-2.32-1.84-2.72-1.84-4.16a5.45,5.45,0,0,1,.56-2.56s-.32-1.52-2.72-1.52c-6.08,0-10.16,7.84-10.16,16.16,0,3.44,1.6,4.8,3.2,4.8C455.89,571.44,460,565.84,463.65,558.72Zm4.08-9.12c3-7.44,5.12-14.72,5.12-18.16,0-2.24-.56-3-1.68-3-1.84,0-3.6,4.88-3.6,12.32C467.57,543.28,467.57,546.4,467.73,549.6Z"/><path class="cls-2" d="M478.29,563c0-9,6.08-16.64,11.2-16.64,3.68,0,5,1.76,5,4.88,0,6.64-7,13.36-10.08,15.44.48,2.72,2.56,4.4,6.4,4.4,4.72,0,7.84-3.84,9.36-5.92.56-.8,1-1.36,1.6-1.36a1.87,1.87,0,0,1,1.6,1.6,3,3,0,0,1-.8,1.84c-2,2.8-5.84,7.36-12.56,7.36S478.29,570.32,478.29,563Zm11.92-11.6c0-1-.4-1.36-1.12-1.36-1.84,0-5.44,6.56-5.44,12.32C486.05,560.8,490.21,556.24,490.21,551.36Z"/><path class="cls-2" d="M521.41,561.68a146.71,146.71,0,0,1,1.2-16.08h-2.88c-1.2,0-1.44-.48-1.44-1.2s1-2.72,2-2.72c.64,0,1.68,0,2.8.08.4-2.8.8-5.36,1.28-7.28.48-2.24,1-3,1.84-3,1.52,0,4.16,1.68,4.16,3.52,0,.64-1,2.16-1.68,4.32l-.72,2.56h2.8c4.16,0,4-.8,4.88-.8s2.24,1.6,2.24,2.64-3.2,1.84-7.12,1.84h-3.44a109.17,109.17,0,0,0-1,15.68c0,8.64,2,9.84,4.72,9.84s5.36-3.84,6.88-5.92c.56-.8,1-1.36,1.6-1.36a1.87,1.87,0,0,1,1.6,1.6,3,3,0,0,1-.8,1.84c-2,2.8-5.36,7.44-10.56,7.44C525,574.64,521.41,571.68,521.41,561.68Z"/><path class="cls-2" d="M557.41,567c0-3.68.64-10.4.64-12.24,0-1.6-.32-2.24-1.52-2.24-3.28,0-10.88,12.64-12,18.4-1,5-1.84,5.6-3.6,5.6-1.28,0-2-1.2-2-3.12,0-.48-.08-8.24-.08-15.36,0-15.68,1.2-34.8,9.28-34.8,3.12,0,5.52,2.24,5.52,7.12,0,11.84-10.16,31-10.16,31l-.16,3.12c.32-.8,7.92-16.64,14.64-16.64,3.6,0,5.12,2,5.12,5.68,0,5-.64,9.28-.64,12.32,0,2.72,1,4.56,3.44,4.56,3.44,0,5.68-3.2,7.2-5.28.56-.8,1-1.36,1.6-1.36a1.87,1.87,0,0,1,1.6,1.6,3,3,0,0,1-.8,1.84c-2,2.8-5,7.12-10.4,7.12C560,574.32,557.41,571,557.41,567Zm-14.16-11.12s6.48-14.88,6.48-25.52c0-1.76-.64-2.72-1.76-2.72C544.77,527.6,543.25,543.68,543.25,555.84Z"/><path class="cls-2" d="M602.85,565.12c.56-.8,1-1.36,1.6-1.36a1.87,1.87,0,0,1,1.6,1.6,3,3,0,0,1-.8,1.84c-2,2.8-5,7.12-9.28,7.12-6.88,0-7.12-9.44-7.12-9.44s-5.84,9.44-11.28,9.44c-4,0-5.84-4.16-5.84-7.84,0-12.32,7.92-20.32,12.88-20.32a5.75,5.75,0,0,1,6,4.48c.08-.16,1.84-3.28,3.92-3.28,1.36,0,2,1,2,2.32,0,1.84-3,3.36-3,10.24,0,5.52.4,10.48,3.12,10.48S601.33,567.2,602.85,565.12Zm-26.24.72c0,2.56.48,4.56,2.48,4.56,2.4,0,8.88-9.6,8.88-10.56s-1.12-1.2-1.12-2.4,1-1.92,1-3.12c0-2.8-.56-4.56-2.64-4.56C582.37,549.76,576.61,556.16,576.61,565.84Z"/><path class="cls-2" d="M603.09,561.68a146.71,146.71,0,0,1,1.2-16.08h-2.88c-1.2,0-1.44-.48-1.44-1.2s1-2.72,2-2.72c.64,0,1.68,0,2.8.08.4-2.8.8-5.36,1.28-7.28.48-2.24,1-3,1.84-3,1.52,0,4.16,1.68,4.16,3.52,0,.64-1,2.16-1.68,4.32l-.72,2.56h2.8c4.16,0,4-.8,4.88-.8s2.24,1.6,2.24,2.64-3.2,1.84-7.12,1.84H609a109.17,109.17,0,0,0-1,15.68c0,8.64,2,9.84,4.72,9.84s5.36-3.84,6.88-5.92c.56-.8,1-1.36,1.6-1.36a1.87,1.87,0,0,1,1.6,1.6,3,3,0,0,1-.8,1.84c-2,2.8-5.36,7.44-10.56,7.44C606.69,574.64,603.09,571.68,603.09,561.68Z"/><path class="cls-2" d="M663.08,565.12c.56-.8,1-1.36,1.6-1.36a1.87,1.87,0,0,1,1.61,1.6,3.07,3.07,0,0,1-.8,1.84c-2,2.8-5.77,7.76-12.73,7.76a11.72,11.72,0,0,1-11.68-12.08c0-10,4.88-16.56,11.12-16.56,5,0,6.64,4,6.64,7.12,0,2.24-1.12,3.6-2.8,3.6a2.47,2.47,0,0,1-2.56-2.16c0-1.12.81-1.6.81-2.56a2.23,2.23,0,0,0-2.17-2.32c-2.4,0-6.24,4.8-6.24,12.88,0,5.76,3,8.48,7.76,8.48C658.68,571.36,661.56,567.2,663.08,565.12Z"/><path class="cls-2" d="M681.16,571a10,10,0,0,1-7.52,3.52c-5.6,0-10.48-3.92-10.48-11A15.86,15.86,0,0,1,667.48,552a8,8,0,0,1,7.84-5.44c6.56,0,10.08,6.16,10.08,13.2a18.16,18.16,0,0,1-2.08,8.16h1c1.92,0,3.36-.72,4.88-2.8.56-.8,1-1.36,1.6-1.36a1.87,1.87,0,0,1,1.6,1.6,3,3,0,0,1-.8,1.84c-2,2.8-4.4,3.92-8,3.92C682.76,571.12,682,571,681.16,571ZM677,569.68a17.32,17.32,0,0,1-9-9.68,16.71,16.71,0,0,0-.4,3.68c0,4.24,2.56,7,6.08,7A6.38,6.38,0,0,0,677,569.68Zm2.4-2.72a13.89,13.89,0,0,0,1.68-6.88c0-6.24-2.4-10.08-5.68-10.08-2.56,0-4.4,1.84-4.4,5C671,560.16,674.6,565,679.4,567Z"/><path class="cls-2" d="M709.32,561.6c-3.12,4.8-8.64,12.56-13.84,12.56-3,0-5.6-2.24-5.6-6.8,0-6,1.36-11.84,2.16-17,.4-2.48.88-3.52,2.24-3.52,1.6,0,3.2,1.76,3.2,4.48s-2.88,11-2.88,14.48c0,2.4.72,3.36,2.4,3.36s7.36-5.68,9.68-9.92A57.91,57.91,0,0,0,711,549.2c.8-2.56,1.28-3.44,2.48-3.44,1.76,0,3.12,1.68,3.12,3.76,0,2.48-2.88,6.48-2.88,10.08,0,4.8,1,10.8,3.84,10.8,2.64,0,5-3.2,6.48-5.28.56-.8,1-1.36,1.6-1.36a1.87,1.87,0,0,1,1.6,1.6,3,3,0,0,1-.8,1.84c-2,2.8-5.2,6.88-9.52,6.88C711.32,574.08,709.64,568.32,709.32,561.6Z"/><path class="cls-2" d="M741.64,567.36c0-5.2,2.16-11,2.16-13.52,0-1.2-.4-1.6-1.28-1.6-3.2,0-11.44,11.52-13.28,16.32-1.44,3.76-2.08,5.28-3.84,5.28s-2.64-1.12-2.64-2.8,1-17.44,1-20.24.24-4.08,2-4.08c2,0,3.2,1.76,3.2,4.88s-.24,10.16-.24,10.32c.4-.72,8.48-14.64,16-14.64a4.44,4.44,0,0,1,4.56,4.48c0,5-2.8,11-2.8,15.52,0,2.72,1.12,3.6,3.28,3.6,2.8,0,5.76-3.68,7.28-5.76.56-.8,1-1.36,1.6-1.36a1.87,1.87,0,0,1,1.6,1.6,3,3,0,0,1-.8,1.84c-2,2.8-6,7.68-10.72,7.68C744.68,574.88,741.64,571.76,741.64,567.36Z"/><path class="cls-2" d="M757.32,561.68a146.71,146.71,0,0,1,1.2-16.08h-2.88c-1.2,0-1.44-.48-1.44-1.2s1-2.72,2-2.72c.64,0,1.68,0,2.8.08.4-2.8.8-5.36,1.28-7.28.48-2.24,1-3,1.84-3,1.52,0,4.16,1.68,4.16,3.52,0,.64-1,2.16-1.68,4.32l-.72,2.56h2.8c4.16,0,4-.8,4.88-.8s2.24,1.6,2.24,2.64-3.2,1.84-7.12,1.84h-3.44a109.17,109.17,0,0,0-1,15.68c0,8.64,2,9.84,4.72,9.84s5.36-3.84,6.88-5.92c.56-.8,1-1.36,1.6-1.36a1.87,1.87,0,0,1,1.6,1.6,3,3,0,0,1-.8,1.84c-2,2.8-5.36,7.44-10.56,7.44C760.92,574.64,757.32,571.68,757.32,561.68Z"/><path class="cls-2" d="M781,554.16a8.16,8.16,0,0,1-3.76-7,6.35,6.35,0,0,1,6.24-6.64,5.22,5.22,0,0,1,5.28,5.44,7.81,7.81,0,0,1-1.2,3.92l-1.36,2.48c4.08,2.64,9.28,5.84,9.28,12.64a12.37,12.37,0,0,1-.32,2.48h.16c2.32,0,3.28-.24,4.8-2.32.56-.8,1-1.36,1.6-1.36a1.87,1.87,0,0,1,1.6,1.6,3,3,0,0,1-.8,1.84c-2,2.8-4.8,3.36-7.68,3.36h-1a8.08,8.08,0,0,1-7,3.76c-3.76,0-6.16-1.6-6.16-4.4,0-2.56,2.4-3.92,5-3.92a27,27,0,0,1,4.8.88,3.89,3.89,0,0,0,.08-1c0-5.52-3.36-7.76-6.72-9.84-1.92,3-4.08,6.08-5.6,8.32-1.12,1.68-2,3-2.88,3A1.37,1.37,0,0,1,774,566c0-1,.48-1.76,1.6-3.44C777.08,560.32,779.24,557.2,781,554.16Zm2.32-9.6c-.88,0-1.76.88-1.76,2.4a4.24,4.24,0,0,0,1.76,3.2,10.78,10.78,0,0,0,1.36-3.76C784.68,545.12,784.2,544.56,783.32,544.56Zm6.24,25.28A24.59,24.59,0,0,0,786,569c-1,0-1.44.48-1.44,1.12s.88,1.2,2,1.2A3.8,3.8,0,0,0,789.56,569.84Z"/><path class="cls-2" d="M811.56,571.68a3.32,3.32,0,0,1-2.88,3.52c-2.72,0-5.2-1.28-5.2-3.44a4.53,4.53,0,0,1,4.8-4.48C810.52,567.28,811.56,569.52,811.56,571.68Z"/><path class="cls-3" d="M393.93,111.39c73-11.55,143.11,10.74,189.33,54-34.55-37.57-83.48-63-139.37-68-77.27-6.79-148.39,28.44-189.94,85l-2.6,2.79a195.11,195.11,0,0,0-28.83,62.06C244.47,179.63,309.49,124.75,393.93,111.39Z"/><path class="cls-3" d="M458.7,474.53C353.35,491.19,254.14,437.46,223.84,351.9c23.06,78.9,94.89,139.94,184.72,147.83C524.24,509.89,625.92,428.07,635.67,317c0-.36.05-.72.08-1.08C622.2,393.76,552.41,459.72,458.7,474.53Z"/><path class="cls-3" d="M456.73,113.16c73.11,11.1,133.15,53.55,164.11,108.76C599.28,175.67,560.36,136.57,508.57,115,437,85.12,358.54,97.18,301.8,138.56l-3.32,1.86a195.44,195.44,0,0,0-46.26,50.43C293.63,133,372.21,100.33,456.73,113.16Z"/><path class="cls-3" d="M408.57,478.87c-105.46-16-183.75-97.24-186.74-187.95-1.9,82.18,48.1,162.1,131.32,196.8C460.33,532.41,582,485.19,624.92,382.26c.14-.33.27-.67.41-1C588.85,451.37,502.36,493.11,408.57,478.87Z"/><path class="cls-1" d="M274,447"/><path class="cls-1" d="M273.67,443.54"/><path class="cls-1" d="M273.27,435.57"/><path class="cls-1" d="M152.41,196"/><path class="cls-1" d="M151.39,192.13"/><path class="cls-1" d="M282,482.24"/><path class="cls-1" d="M279.11,472.75"/><path class="cls-1" d="M395.81,80.4"/><path class="cls-4" d="M632.84,244c-11.5-41.58-58.22-73.71-117.33-89.71,33.69,25.2,52.63,52.07,50.73,54.13-2.26,2.45-32.36-32-89.51-58.51q-5.64-2.61-11.11-4.89-7.46-.8-15-1.27c55.79,31.17,88.9,76.51,86.3,79.34-2.48,2.68-35.53-35.13-98.29-64.25a355.19,355.19,0,0,0-36.73-14.59q-7.8.65-15.56,1.68a264.12,264.12,0,0,1,33.51,15.59c56.32,31.18,89.8,77,87.18,79.83-2.48,2.68-35.53-35.14-98.29-64.25a358.91,358.91,0,0,0-64.1-22.58,253.89,253.89,0,0,0-42.37,16.15,296,296,0,0,0-58.53,38.48c-2.32,4.3-5.39,7.95-8.31,11.92a42.35,42.35,0,0,0-2.87,4.47L342.76,462.69a279.89,279.89,0,0,0,37,11.42,68.1,68.1,0,0,1,6.94,1.95C525.53,472.14,657.25,332.27,632.84,244Z"/><path id="white_circle" data-name="white circle" class="cls-5" d="M448.7,463c-51,37.36-139.08-1.41-182.58-55C215.18,345.16,203.7,235.25,256,195.89c51.41-38.67,149.4,2,194.07,67.41C491.19,323.45,501,424.73,448.7,463Z"/><ellipse id="inside_dough" data-name="inside dough" class="cls-6" cx="341.83" cy="340" rx="46.42" ry="69.94" transform="translate(-138.07 293.68) rotate(-39.33)"/><path class="cls-7" d="M542.33,284.9a1.5,1.5,0,0,0,0-3,1.5,1.5,0,0,0,0,3Z"/><path class="cls-7" d="M520.2,294.1a1.5,1.5,0,0,0,0-3,1.5,1.5,0,0,0,0,3Z"/><path class="cls-7" d="M498.08,269.59a1.5,1.5,0,0,0,0-3,1.5,1.5,0,0,0,0,3Z"/><path class="cls-7" d="M522.25,276.39a1.5,1.5,0,0,0,0-3,1.5,1.5,0,0,0,0,3Z"/><path class="cls-7" d="M546.42,256a1.5,1.5,0,0,0,0-3,1.5,1.5,0,0,0,0,3Z"/><path class="cls-7" d="M566.5,276.05a1.5,1.5,0,0,0,0-3,1.5,1.5,0,0,0,0,3Z"/><path class="cls-7" d="M575,243a1.5,1.5,0,0,0,0-3,1.5,1.5,0,0,0,0,3Z"/><path class="cls-7" d="M557.65,221.59a1.5,1.5,0,0,0,0-3,1.5,1.5,0,0,0,0,3Z"/><path class="cls-7" d="M555.61,245.07a1.5,1.5,0,0,0,0-3,1.5,1.5,0,0,0,0,3Z"/><path class="cls-7" d="M517.48,245.07a1.5,1.5,0,0,0,0-3,1.5,1.5,0,0,0,0,3Z"/><path class="cls-7" d="M470.84,266.86a1.5,1.5,0,0,0,0-3,1.5,1.5,0,0,0,0,3Z"/><path class="cls-7" d="M481.06,246.44a1.5,1.5,0,0,0,0-3,1.5,1.5,0,0,0,0,3Z"/><path class="cls-7" d="M451.78,237.93a1.5,1.5,0,0,0,0-3,1.5,1.5,0,0,0,0,3Z"/><path class="cls-7" d="M455.52,224a1.5,1.5,0,0,0,0-3,1.5,1.5,0,0,0,0,3Z"/><path class="cls-7" d="M432,216.48a1.5,1.5,0,0,0,0-3,1.5,1.5,0,0,0,0,3Z"/><path class="cls-7" d="M581.48,213.42a1.5,1.5,0,0,0,0-3,1.5,1.5,0,0,0,0,3Z"/><path class="cls-7" d="M595.1,225.33a1.5,1.5,0,0,0,0-3,1.5,1.5,0,0,0,0,3Z"/><path class="cls-7" d="M620.29,252.9a1.5,1.5,0,0,0,0-3,1.5,1.5,0,0,0,0,3Z"/><path class="cls-7" d="M593.4,251.88a1.5,1.5,0,0,0,0-3,1.5,1.5,0,0,0,0,3Z"/><path class="cls-7" d="M576,259a1.5,1.5,0,0,0,0-3,1.5,1.5,0,0,0,0,3Z"/><path class="cls-7" d="M613.82,229.07a1.5,1.5,0,0,0,0-3,1.5,1.5,0,0,0,0,3Z"/><path class="cls-7" d="M598.16,213.07a1.5,1.5,0,0,0,0-3,1.5,1.5,0,0,0,0,3Z"/><path class="cls-7" d="M559,182.44a1.5,1.5,0,0,0,0-3,1.5,1.5,0,0,0,0,3Z"/><path class="cls-7" d="M579.78,199.8a1.5,1.5,0,0,0,0-3,1.5,1.5,0,0,0,0,3Z"/><path class="cls-7" d="M602.25,237.59a1.5,1.5,0,0,0,0-3,1.5,1.5,0,0,0,0,3Z"/><path class="cls-7" d="M501.14,214.78a1.5,1.5,0,0,0,0-3,1.5,1.5,0,0,0,0,3Z"/><path class="cls-7" d="M519.18,188.22a1.5,1.5,0,0,0,0-3,1.5,1.5,0,0,0,0,3Z"/><path class="cls-7" d="M546.42,210a1.5,1.5,0,0,0,0-3,1.5,1.5,0,0,0,0,3Z"/><path class="cls-7" d="M533.48,202.86a1.5,1.5,0,0,0,0-3,1.5,1.5,0,0,0,0,3Z"/><path class="cls-7" d="M465.06,184.48a1.5,1.5,0,0,0,0-3,1.5,1.5,0,0,0,0,3Z"/><path class="cls-7" d="M401.06,188.9a1.5,1.5,0,0,0,0-3,1.5,1.5,0,0,0,0,3Z"/><path class="cls-7" d="M371.44,177.33a1.5,1.5,0,0,0,0-3,1.5,1.5,0,0,0,0,3Z"/><path class="cls-7" d="M335.69,173.24a1.5,1.5,0,0,0,0-3,1.5,1.5,0,0,0,0,3Z"/><path class="cls-7" d="M345.57,165.76a1.5,1.5,0,0,0,0-3,1.5,1.5,0,0,0,0,3Z"/><path class="cls-7" d="M354.08,181.07a1.5,1.5,0,0,0,0-3,1.5,1.5,0,0,0,0,3Z"/><path class="cls-7" d="M406.84,204.9a1.5,1.5,0,0,0,0-3,1.5,1.5,0,0,0,0,3Z"/><path class="cls-7" d="M419.78,203.2a1.5,1.5,0,0,0,0-3,1.5,1.5,0,0,0,0,3Z"/><path class="cls-7" d="M490.59,290.35a1.5,1.5,0,0,0,0-3,1.5,1.5,0,0,0,0,3Z"/></g></svg>