<svg id="Layer_1" data-name="Layer 1" xmlns="http://www.w3.org/2000/svg" xmlns:xlink="http://www.w3.org/1999/xlink" viewBox="0 0 480.82 341.6"><defs><style>.cls-1,.cls-4{fill:#29abe2;}.cls-1,.cls-11,.cls-6,.cls-7{stroke:#42210b;}.cls-1,.cls-11,.cls-3,.cls-6,.cls-7,.cls-8{stroke-miterlimit:10;}.cls-2,.cls-7{fill:none;}.cls-3{fill:#fff;stroke:#000;}.cls-5{clip-path:url(#clip-path);}.cls-6{fill:#42210b;}.cls-8{fill:#e6b53c;stroke:#e69f3c;stroke-width:5px;}.cls-9{clip-path:url(#clip-path-2);}.cls-10{fill:#e69f3c;}.cls-11{font-size:74.85px;fill:#65c8d0;stroke-width:2px;font-family:Jumble;}.cls-12{letter-spacing:0.01em;}.cls-13,.cls-14,.cls-15{font-size:103.95px;}.cls-13{letter-spacing:0.11em;}.cls-14{letter-spacing:0.1em;}.cls-15{letter-spacing:0.08em;}</style><clipPath id="clip-path" transform="translate(-44.16 63.65)"><ellipse class="cls-1" cx="472.06" cy="198.44" rx="35.38" ry="31.66"/></clipPath><clipPath id="clip-path-2" transform="translate(-44.16 63.65)"><ellipse class="cls-2" cx="483.98" cy="118.3" rx="76.94" ry="28.92" transform="translate(295.7 579.59) rotate(-81.53)"/></clipPath></defs><title>New Logo</title><ellipse class="cls-3" cx="427.9" cy="261.85" rx="35.38" ry="31.66"/><ellipse class="cls-4" cx="427.9" cy="262.09" rx="35.38" ry="31.66"/><g class="cls-5"><ellipse class="cls-6" cx="430.15" cy="233.54" rx="35.38" ry="31.66"/></g><ellipse class="cls-7" cx="427.9" cy="262.09" rx="35.38" ry="31.66"/><ellipse class="cls-8" cx="484.06" cy="117.73" rx="76.94" ry="28.92" transform="translate(252.17 642.83) rotate(-81.53)"/><g class="cls-9"><ellipse class="cls-10" cx="475.11" cy="182.26" rx="1.87" ry="31.49" transform="translate(212.56 705.54) rotate(-85.57)"/><ellipse class="cls-10" cx="477.16" cy="167.52" rx="1.97" ry="31.49" transform="translate(229.16 693.97) rotate(-85.57)"/><ellipse class="cls-10" cx="480.48" cy="150.66" rx="1.97" ry="31.49" transform="translate(249.04 681.73) rotate(-85.57)"/><ellipse class="cls-10" cx="481.95" cy="132.97" rx="2.66" ry="31.49" transform="matrix(0.08, -1, 1, 0.08, 268.12, 666.9)"/><ellipse class="cls-10" cx="493.58" cy="52.67" rx="1.87" ry="31.49" transform="matrix(0.08, -1, 1, 0.08, 358.81, 604.36)"/><ellipse class="cls-10" cx="491.54" cy="67.42" rx="1.97" ry="31.49" transform="translate(342.23 615.93) rotate(-85.57)"/><ellipse class="cls-10" cx="488.21" cy="84.28" rx="1.97" ry="31.49" transform="translate(322.35 628.18) rotate(-85.57)"/><ellipse class="cls-10" cx="486.74" cy="101.97" rx="2.66" ry="31.49" transform="translate(303.46 643.07) rotate(-85.59)"/><ellipse class="cls-10" cx="484.03" cy="117.99" rx="2.66" ry="31.49" transform="translate(284.98 655.14) rotate(-85.59)"/></g><path class="cls-1" d="M500,198.73a14.94,14.94,0,0,1,0,5.52,12.6,12.6,0,0,1-5.26,8.27,15.4,15.4,0,0,1-2.88,1.66,18.77,18.77,0,0,1-3.89,1.29" transform="translate(-44.16 63.65)"/><ellipse class="cls-6" cx="429.37" cy="258.15" rx="14.44" ry="3.52"/><text x="-44.16" y="63.65"/><text class="cls-11" transform="translate(1 176.66) scale(1.1 1)">P<tspan class="cls-12" x="47" y="0">a</tspan><tspan x="88.16" y="0">n Dulce </tspan><tspan class="cls-13" x="0" y="113.01">W</tspan><tspan class="cls-14" x="107.48" y="113.01">o</tspan><tspan class="cls-15" x="174.53" y="113.01">r</tspan><tspan class="cls-13" x="238.47" y="113.01">ld</tspan></text></svg>